<?xml version="1.0" encoding="utf-8"?>
<!-- Generator: Adobe Illustrator 19.0.0, SVG Export Plug-In . SVG Version: 6.00 Build 0)  -->
<svg version="1.1" id="Layer_1" xmlns="http://www.w3.org/2000/svg" xmlns:xlink="http://www.w3.org/1999/xlink" x="0px" y="0px"
	 viewBox="-439 51 200 300" style="enable-background:new -439 51 200 300;" xml:space="preserve">
<style type="text/css">
	.st0{fill:#FFFFFF;stroke:#010101;stroke-width:0.5;}
	.st1{fill:#5555FF;}
	.st2{fill:#FFFFFF;}
</style>
<g id="r0" transform="matrix(4,0,0,4,-1260,-2077.0865)">
	<path id="rect2987-1" class="st0" d="M214.1,533.3h32.2c4.5,0,8,3.5,8,8v56.3c0,4.5-3.5,8-8,8h-32.2c-4.5,0-8-3.5-8-8v-56.3
		C206.1,536.9,209.6,533.3,214.1,533.3z"/>
	<path id="rect3757-5" class="st1" d="M214.1,537.2h32.2c2.3,0,4.2,1.9,4.2,4.2v56.3c0,2.3-1.9,4.2-4.2,4.2h-32.2
		c-2.3,0-4.2-1.9-4.2-4.2v-56.3C210.3,539.1,211.9,537.2,214.1,537.2z"/>
	<path id="path3773-0-4-8-4-2" class="st2" d="M242.4,549.4c-17.7,0-32.2,14.5-32.2,32.2c0,4.5,3.5,8,8,8
		c17.7,0,32.2-14.5,32.2-32.2C250.5,553,246.6,549.4,242.4,549.4z"/>
	<path id="path3962-7" class="st1" d="M230.2,557.5c-4.5,0-8,3.5-8,8v8c0,4.5,3.5,8,8,8s8-3.5,8-8v-8
		C238.2,561,234.7,557.5,230.2,557.5z M230.2,561.3c2.3,0,4.2,1.9,4.2,4.2v8c0,2.3-1.9,4.2-4.2,4.2c-2.3,0-4.2-1.9-4.2-4.2v-8
		C226.3,563.2,228,561.3,230.2,561.3z"/>
	<path id="path3962-7-1" class="st2" d="M216.1,539.1c-2.3,0-4.2,1.9-4.2,4.2v4.2c0,2.3,1.9,4.2,4.2,4.2c2.3,0,4.2-1.9,4.2-4.2v-4.2
		C220.2,541.1,218.3,539.1,216.1,539.1z M216.1,541.4c1,0,1.9,1,1.9,1.9v4.2c0,1-1,1.9-1.9,1.9c-1,0-1.9-1-1.9-1.9v-4.2
		C214.1,542.3,215.1,541.4,216.1,541.4z"/>
	<path id="path3962-7-1-2" class="st2" d="M244.4,587.7c-2.3,0-4.2,1.9-4.2,4.2v4.2c0,2.3,1.9,4.2,4.2,4.2s4.2-1.9,4.2-4.2v-4.2
		C248.2,589.3,246.6,587.7,244.4,587.7z M244.4,589.6c1,0,1.9,1,1.9,1.9v4.2c0,1-1,1.9-1.9,1.9c-1,0-1.9-1-1.9-1.9v-4.2
		C242.4,590.6,243.1,589.6,244.4,589.6z"/>
</g>
</svg>
