<?xml version="1.0" encoding="utf-8"?>
<!-- Generator: Adobe Illustrator 19.0.0, SVG Export Plug-In . SVG Version: 6.00 Build 0)  -->
<svg version="1.1" id="Layer_1" xmlns="http://www.w3.org/2000/svg" xmlns:xlink="http://www.w3.org/1999/xlink" x="0px" y="0px"
	 viewBox="-439 51 200 300" style="enable-background:new -439 51 200 300;" xml:space="preserve">
<style type="text/css">
	.st0{fill:#FFFFFF;stroke:#010101;stroke-width:0.5;}
	.st1{fill:#5555FF;}
	.st2{fill:#FFFFFF;}
</style>
<g id="r1" transform="matrix(4,0,0,4,-1260,-2077.0865)">
	<path id="rect2987" class="st0" d="M214.2,533.1h32.3c4.5,0,8.1,3.6,8.1,8.1v56.5c0,4.5-3.6,8.1-8.1,8.1h-32.3
		c-4.5,0-8.1-3.6-8.1-8.1v-56.5C206.1,536.7,209.6,533.1,214.2,533.1z"/>
	<path id="rect3757" class="st1" d="M214.2,537h32.3c2.3,0,3.9,1.9,3.9,3.9v56.5c0,2.3-1.9,3.9-3.9,3.9h-32.3
		c-2.3,0-3.9-1.9-3.9-3.9v-56.5C210,538.9,211.9,537,214.2,537z"/>
	<path id="path3773-0-4-8-4" class="st2" d="M242.2,549.3c-17.8,0-32.3,14.5-32.3,32.3c0,4.5,3.6,8.1,8.1,8.1
		c17.8,0,32.3-14.5,32.3-32.3C250.6,552.8,246.8,549.3,242.2,549.3z"/>
	<path id="rect3921" class="st1" d="M228.7,557.3l-3.9,3.9v4.8l3.9-3.9v19.4h3.9v-24.2H228.7z"/>
	<path id="rect3921-5" class="st2" d="M214.2,538.9l-1.9,1.9v2.6l1.9-1.9v9.7h1.9v-12.3H214.2z"/>
	<path id="rect3921-5-5" class="st2" d="M246.4,599.6l1.9-1.9v-2.6l-1.9,1.9v-9.7h-1.9v12.3H246.4z"/>
</g>
</svg>
