<?xml version="1.0" encoding="utf-8"?>
<!-- Generator: Adobe Illustrator 19.0.0, SVG Export Plug-In . SVG Version: 6.00 Build 0)  -->
<svg version="1.1" id="Layer_1" xmlns="http://www.w3.org/2000/svg" xmlns:xlink="http://www.w3.org/1999/xlink" x="0px" y="0px"
	 viewBox="-439 51 200 300" style="enable-background:new -439 51 200 300;" xml:space="preserve">
<style type="text/css">
	.st0{fill:#FFFFFF;stroke:#010101;stroke-width:0.5;}
	.st1{fill:#5555FF;}
	.st2{fill:#FFFFFF;}
</style>
<g id="g6571" transform="matrix(4,0,0,4,-1260,-2077.0865)">
	<path id="rect2987-8" class="st0" d="M214.1,533.1h32.2c4.5,0,8.1,3.5,8.1,8.1v56.4c0,4.5-3.5,8.1-8.1,8.1h-32.2
		c-4.5,0-8.1-3.5-8.1-8.1v-56.4C206.1,536.7,209.6,533.1,214.1,533.1z"/>
	<path id="rect3757-26" class="st1" d="M214.1,537h32.2c2.3,0,4.2,1.9,4.2,4.2v56.4c0,2.3-1.9,4.2-4.2,4.2h-32.2
		c-2.3,0-4.2-1.9-4.2-4.2v-56.4C209.9,538.9,211.9,537,214.1,537z"/>
	<path id="path3773-0-4-8-4-60" class="st2" d="M242.2,549.2c-17.7,0-32.2,14.5-32.2,32.2c0,4.5,3.5,8.1,8.1,8.1
		c17.7,0,32.2-14.5,32.2-32.2C250.2,552.8,246.7,549.2,242.2,549.2z"/>
	<path id="rect3163-52-9-8-1-1-2-7-3-6-5" class="st1" d="M229.3,557.3c-4.5,0-8.1,3.5-8.1,8.1v1h4.2v-1c0-2.3,1.9-4.2,4.2-4.2
		c2.3,0,4.2,1.9,4.2,4.2c0,1-0.6,2.6-1.6,3.2c-4.2,3.2-4.2,2.9-10.6,7.1v5.8h8.1h8.1v-4.2v-1.6h-4.2v1.6h-4.2h-3.2
		c5.2-3.5,5.5-3.5,9.3-7.1c1.3-1,1.9-3.2,1.9-5.2C237.3,560.8,233.8,557.3,229.3,557.3z"/>
	<path id="rect3163-52-9-8-1-1-2-7-3-6-0-9" class="st2" d="M216.1,539.3c-2.3,0-4.2,1.9-4.2,4.2v0.3h1.9v-0.3c0-1,1-1.9,1.9-1.9
		c1,0,1.9,1,1.9,1.9c0,0.3-0.3,1.3-0.6,1.6c-2.3,1.6-2.3,1.3-5.2,3.5v2.9h4.2h4.2v-1.9v-1.3h-1.9v1h-1.9h-1.6
		c2.6-1.6,2.6-1.6,4.5-3.5c0.6-0.6,1-1.6,1-2.6C220.3,540.9,218.3,539.3,216.1,539.3z"/>
	<path id="rect3163-52-9-8-1-1-2-7-3-6-0-4" class="st2" d="M244.4,599.5c2.3,0,4.2-1.9,4.2-4.2V595h-1.9v0.3c0,1-1,1.9-1.9,1.9
		c-1,0-1.9-1-1.9-1.9c0-0.3,0.3-1.3,0.6-1.6c2.3-1.6,2.3-1.3,5.2-3.5v-2.9h-4.2h-4.2v1.9v1h1.9v-1h1.9h1.6c-2.6,1.6-2.6,1.6-4.5,3.5
		c-0.6,0.6-1,1.6-1,2.6C240.2,597.9,242.2,599.5,244.4,599.5z"/>
</g>
</svg>
