<?xml version="1.0" encoding="utf-8"?>
<!-- Generator: Adobe Illustrator 19.0.0, SVG Export Plug-In . SVG Version: 6.00 Build 0)  -->
<svg version="1.1" id="Layer_1" xmlns="http://www.w3.org/2000/svg" xmlns:xlink="http://www.w3.org/1999/xlink" x="0px" y="0px"
	 viewBox="0 0 60 90" style="enable-background:new 0 0 60 90;" xml:space="preserve">
<style type="text/css">
	.st0{fill:#FFFFFF;stroke:#010101;stroke-width:0.5;}
	.st1{fill:#5555FF;}
	.st2{fill:#FFFFFF;}
</style>
<g id="g6579" transform="matrix(4,0,0,4,-1260,-2077.0865)">
	<path id="rect2987-8-5" class="st0" d="M317.5,519.3h10c1.4,0,2.5,1.1,2.5,2.5v17.5c0,1.4-1.1,2.5-2.5,2.5h-10
		c-1.4,0-2.5-1.1-2.5-2.5v-17.5C315,520.4,316.1,519.3,317.5,519.3z"/>
	<path id="rect3757-26-33" class="st1" d="M317.5,520.5h10c0.7,0,1.2,0.6,1.2,1.2v17.5c0,0.7-0.6,1.2-1.2,1.2h-10
		c-0.7,0-1.2-0.6-1.2-1.2v-17.5C316.2,521.1,316.8,520.5,317.5,520.5z"/>
	<path id="path3773-0-4-8-4-60-3" class="st2" d="M326.2,524.3c-5.5,0-10,4.5-10,10c0,1.4,1.1,2.5,2.5,2.5c5.5,0,10-4.5,10-10
		C328.8,525.4,327.6,524.3,326.2,524.3z"/>
	<path id="rect3163-52-9-8-1-1-2-7-3-6-4-6-1-8-7-0-1" class="st1" d="M322.5,526.8c-1,0-1.9,0.8-1.9,1.9h1.2c0-0.3,0.3-0.6,0.6-0.6
		s0.6,0.3,0.6,0.6s-0.3,0.6-0.6,0.6h-0.8v1.2h0.8c0.7,0,1.2,0.6,1.2,1.2s-0.6,1.2-1.2,1.2s-1.2-0.6-1.2-1.2H320
		c0,1.4,1.1,2.5,2.5,2.5s2.5-1.1,2.5-2.5c0-0.8-0.4-1.5-1-2c0.2-0.3,0.4-0.7,0.4-1.1C324.4,527.6,323.5,526.8,322.5,526.8z"/>
	<path id="rect3163-52-9-8-1-1-2-7-3-6-4-6-1-8-7-0-6-2" class="st2" d="M318.1,521.1c-0.5,0-0.9,0.4-0.9,0.9h0.6
		c0-0.2,0.1-0.3,0.3-0.3s0.3,0.1,0.3,0.3s-0.1,0.3-0.3,0.3h-0.4v0.6h0.4c0.3,0,0.6,0.3,0.6,0.6s-0.3,0.6-0.6,0.6s-0.6-0.3-0.6-0.6
		h-0.6c0,0.7,0.6,1.2,1.2,1.2s1.2-0.6,1.2-1.2c0-0.4-0.2-0.8-0.5-1c0.1-0.2,0.2-0.4,0.2-0.6C319.1,521.6,318.6,521.1,318.1,521.1z"
		/>
	<path id="rect3163-52-9-8-1-1-2-7-3-6-4-6-1-8-7-0-6-2-6" class="st2" d="M326.9,539.9c0.5,0,0.9-0.4,0.9-0.9h-0.6
		c0,0.2-0.1,0.3-0.3,0.3s-0.3-0.1-0.3-0.3s0.1-0.3,0.3-0.3h0.4V538h-0.4c-0.3,0-0.6-0.3-0.6-0.6s0.3-0.6,0.6-0.6s0.6,0.3,0.6,0.6
		h0.6c0-0.7-0.6-1.2-1.2-1.2s-1.2,0.6-1.2,1.2c0,0.4,0.2,0.8,0.5,1c-0.1,0.2-0.2,0.4-0.2,0.6C325.9,539.5,326.4,539.9,326.9,539.9z"
		/>
</g>
</svg>
