<?xml version="1.0" encoding="utf-8"?>
<!-- Generator: Adobe Illustrator 19.0.0, SVG Export Plug-In . SVG Version: 6.00 Build 0)  -->
<svg version="1.1" id="Layer_1" xmlns="http://www.w3.org/2000/svg" xmlns:xlink="http://www.w3.org/1999/xlink" x="0px" y="0px"
	 viewBox="-439 51 200 300" style="enable-background:new -439 51 200 300;" xml:space="preserve">
<style type="text/css">
	.st0{fill:#FFFFFF;stroke:#010101;stroke-width:0.5;}
	.st1{fill:#5555FF;}
	.st2{fill:#FFFFFF;}
</style>
<g id="g6587" transform="matrix(4,0,0,4,-1260,-2077.0865)">
	<path id="rect2987-8-5-0" class="st0" d="M214,532.8h32.5c4.5,0,8.1,3.6,8.1,8.1v56.9c0,4.5-3.6,8.1-8.1,8.1H214
		c-4.5,0-8.1-3.6-8.1-8.1v-56.9C205.9,536.4,209.4,532.8,214,532.8z"/>
	<path id="rect3757-26-33-8" class="st1" d="M214,536.7h32.5c2.3,0,3.9,1.9,3.9,3.9v56.9c0,2.3-1.9,3.9-3.9,3.9H214
		c-2.3,0-3.9-1.9-3.9-3.9v-56.9C209.8,538.6,211.7,536.7,214,536.7z"/>
	<path id="path3773-0-4-8-4-60-3-8" class="st2" d="M242.3,549c-17.9,0-32.5,14.6-32.5,32.5c0,4.5,3.6,8.1,8.1,8.1
		c17.9,0,32.5-14.6,32.5-32.5C250.7,552.6,246.8,549,242.3,549z"/>
	<path id="rect3980-7-6-2-9-5-60-2" class="st1" d="M229.3,557.2l-8.1,16.2v3.9h9.7v3.9h3.9v-3.9h2.6v-3.9h-2.3v-8.1h-3.9v8.1h-5.5
		l7.8-16.2H229.3z"/>
	<path id="rect3980-7-6-2-9-5-60-5-3" class="st2" d="M215.9,538.6l-3.9,8.1v1.9h4.9v1.9h1.9v-1.9h1.3v-1.9h-1.3v-3.9h-1.9v3.9H214
		l3.9-8.1H215.9z"/>
	<path id="rect3980-7-6-2-9-5-60-5-3-9" class="st2" d="M244.5,599.7l3.9-8.1v-1.9h-4.9v-1.9h-1.9v1.9h-1.3v1.9h1.3v3.9h1.9v-3.9
		h2.9l-3.9,8.1H244.5z"/>
</g>
</svg>
