<?xml version="1.0" encoding="utf-8"?>
<!-- Generator: Adobe Illustrator 19.0.0, SVG Export Plug-In . SVG Version: 6.00 Build 0)  -->
<svg version="1.1" id="Layer_1" xmlns="http://www.w3.org/2000/svg" xmlns:xlink="http://www.w3.org/1999/xlink" x="0px" y="0px"
	 viewBox="-439 51 200 300" style="enable-background:new -439 51 200 300;" xml:space="preserve">
<style type="text/css">
	.st0{fill:#FFFFFF;stroke:#010101;stroke-width:0.5;}
	.st1{fill:#5555FF;}
	.st2{fill:#FFFFFF;}
</style>
<g id="g6595" transform="matrix(4,0,0,4,-1260,-2077.0865)">
	<path id="rect2987-8-5-6" class="st0" d="M214,532.9h32.4c4.5,0,8.1,3.6,8.1,8.1v56.8c0,4.5-3.6,8.1-8.1,8.1H214
		c-4.5,0-8.1-3.6-8.1-8.1V541C205.9,536.5,209.4,532.9,214,532.9z"/>
	<path id="rect3757-26-33-81" class="st1" d="M214,536.8h32.4c2.3,0,3.9,1.9,3.9,3.9v56.8c0,2.3-1.9,3.9-3.9,3.9H214
		c-2.3,0-3.9-1.9-3.9-3.9v-56.8C209.8,538.8,211.7,536.8,214,536.8z"/>
	<path id="path3773-0-4-8-4-60-3-9" class="st2" d="M242.2,549.1c-17.8,0-32.4,14.6-32.4,32.4c0,4.5,3.6,8.1,8.1,8.1
		c17.8,0,32.4-14.6,32.4-32.4C250.6,552.7,246.7,549.1,242.2,549.1z"/>
	<path id="rect3163-6-0-0-2-7-1-2-19-4" class="st1" d="M222.7,557.2v8.1v3.9h8.1c2.3,0,3.9,1.9,3.9,3.9c0,1.9-1.9,3.9-3.9,3.9
		s-3.9-1.9-3.9-3.9h-3.9c0,4.5,3.6,8.1,8.1,8.1s8.1-3.6,8.1-8.1c0-4.5-3.6-8.1-8.1-8.1h-3.9v-3.9h3.9h7.1v-3.9h-7.1h-3.9H222.7z"/>
	<path id="rect3163-6-0-0-2-7-1-2-19-2-4" class="st2" d="M212,538.8v3.9v1.9h3.9c1,0,1.9,1,1.9,1.9s-1,1.9-1.9,1.9
		c-1,0-1.9-1-1.9-1.9H212c0,2.3,1.9,3.9,3.9,3.9c1.9,0,3.9-1.9,3.9-3.9s-1.9-3.9-3.9-3.9H214v-1.9h1.9h3.6v-1.9h-3.6H214H212z"/>
	<path id="rect3163-6-0-0-2-7-1-2-19-2-4-6" class="st2" d="M248.4,599.7v-3.9v-2.3h-3.9c-1,0-1.9-1-1.9-1.9s1-1.9,1.9-1.9
		c1,0,1.9,1,1.9,1.9h1.9c0-2.3-1.9-3.9-3.9-3.9c-1.9,0-3.9,1.9-3.9,3.9s1.9,3.9,3.9,3.9h1.9v1.9h-1.9h-3.6v1.9h3.6h1.9h1.9V599.7z"
		/>
</g>
</svg>
