<?xml version="1.0" encoding="utf-8"?>
<!-- Generator: Adobe Illustrator 19.0.0, SVG Export Plug-In . SVG Version: 6.00 Build 0)  -->
<svg version="1.1" id="Layer_1" xmlns="http://www.w3.org/2000/svg" xmlns:xlink="http://www.w3.org/1999/xlink" x="0px" y="0px"
	 viewBox="-439 51 200 300" style="enable-background:new -439 51 200 300;" xml:space="preserve">
<style type="text/css">
	.st0{fill:#FFFFFF;stroke:#010101;stroke-width:0.5;}
	.st1{fill:#5555FF;}
	.st2{fill:#FFFFFF;}
</style>
<g id="g6619" transform="matrix(4,0,0,4,-1260,-2077.0865)">
	<path id="rect2987-8-5-8" class="st0" d="M214,533.3h32.4c4.5,0,8.1,3.6,8.1,8.1v56.7c0,4.5-3.6,8.1-8.1,8.1H214
		c-4.5,0-8.1-3.6-8.1-8.1v-56.7C205.9,536.9,209.4,533.3,214,533.3z"/>
	<path id="rect3757-26-33-9" class="st1" d="M214,537.2h32.4c2.3,0,3.9,1.9,3.9,3.9v56.7c0,2.3-1.9,3.9-3.9,3.9H214
		c-2.3,0-3.9-1.9-3.9-3.9v-56.7C209.8,539.1,211.7,537.2,214,537.2z"/>
	<path id="path3773-0-4-8-4-60-3-0" class="st2" d="M242.1,549.5c-17.8,0-32.4,14.6-32.4,32.4c0,4.5,3.6,8.1,8.1,8.1
		c17.8,0,32.4-14.6,32.4-32.4C250.6,553,246.7,549.5,242.1,549.5z"/>
	<path id="rect3163-52-9-8-1-1-2-7-3-6-4-6-1-8-8-5" class="st1" d="M230.2,557.6c-3.2,0-6.2,2.6-6.2,6.2c0,1.3,0.3,2.6,1.3,3.6
		c-1.9,1.6-3.2,3.9-3.2,6.5c0,4.5,3.6,8.1,8.1,8.1c4.5,0,8.1-3.6,8.1-8.1c0-2.6-1.3-4.9-3.2-6.5c0.6-1,1.3-2.3,1.3-3.6
		C236.3,560.2,233.4,557.6,230.2,557.6z M230.2,561.5c1,0,1.9,1,1.9,1.9c0,1-1,1.9-1.9,1.9c-1,0-1.9-1-1.9-1.9
		C228.2,562.4,229.2,561.5,230.2,561.5z M229.8,569.6h0.3c2.3,0,3.9,1.9,3.9,3.9s-1.9,3.9-3.9,3.9s-3.9-1.9-3.9-3.9
		C225.9,571.5,227.6,569.9,229.8,569.6z"/>
	<path id="rect3163-52-9-8-1-1-2-7-3-6-4-6-1-8-8-2-1" class="st2" d="M215.9,539.1c-1.6,0-2.9,1.3-2.9,2.9c0,0.6,0.3,1.3,0.6,1.9
		c-1,0.6-1.6,1.9-1.6,3.2c0,2.3,1.9,3.9,3.9,3.9s3.9-1.9,3.9-3.9c0-1.3-0.6-2.6-1.6-3.2c0.3-0.6,0.6-1.3,0.6-1.9
		C219.1,540.7,217.5,539.1,215.9,539.1z M215.9,541.4c0.6,0,1,0.3,1,1s-0.3,1-1,1s-1-0.3-1-1S215.6,541.4,215.9,541.4z M215.9,545.3
		L215.9,545.3c1.3,0,2.3,1,2.3,1.9s-1,1.9-1.9,1.9c-1,0-1.9-1-1.9-1.9C214,546.3,214.6,545.6,215.9,545.3z"/>
	<path id="rect3163-52-9-8-1-1-2-7-3-6-4-6-1-8-8-2-1-1" class="st2" d="M244.4,600c-1.6,0-2.9-1.3-2.9-2.9c0-0.6,0.3-1.3,0.6-1.9
		c-1-0.6-1.6-1.9-1.6-3.2c0-2.3,1.9-3.9,3.9-3.9s3.9,1.9,3.9,3.9c0,1.3-0.6,2.6-1.6,3.2c0.3,0.6,0.6,1.3,0.6,1.9
		C247.3,598.7,246,600,244.4,600z M244.4,598.1c0.6,0,1-0.3,1-1s-0.3-1-1-1c-0.6,0-1,0.3-1,1S243.8,598.1,244.4,598.1z M244.1,593.8
		C244.1,593.8,244.4,593.8,244.1,593.8c1.3,0,2.3-1,2.3-1.9s-1-1.9-1.9-1.9c-1,0-1.9,1-1.9,1.9C242.1,592.9,243.1,593.8,244.1,593.8
		z"/>
</g>
</svg>
