<?xml version="1.0" encoding="utf-8"?>
<!-- Generator: Adobe Illustrator 19.0.0, SVG Export Plug-In . SVG Version: 6.00 Build 0)  -->
<svg version="1.1" id="Layer_1" xmlns="http://www.w3.org/2000/svg" xmlns:xlink="http://www.w3.org/1999/xlink" x="0px" y="0px"
	 viewBox="-439 51 200 300" style="enable-background:new -439 51 200 300;" xml:space="preserve">
<style type="text/css">
	.st0{fill:#FFFFFF;stroke:#010101;stroke-width:0.5;}
	.st1{fill:#5555FF;}
	.st2{fill:#FFFFFF;}
</style>
<g id="g6627" transform="matrix(4,0,0,4,-1260,-2077.0865)">
	<path id="rect2987-8-5-81" class="st0" d="M214,533.3h32.4c4.5,0,8.1,3.6,8.1,8.1v56.8c0,4.5-3.6,8.1-8.1,8.1H214
		c-4.5,0-8.1-3.6-8.1-8.1v-56.8C205.9,536.9,209.4,533.3,214,533.3z"/>
	<path id="rect3757-26-33-5" class="st1" d="M214,537.2h32.4c2.3,0,3.9,1.9,3.9,3.9v56.8c0,2.3-1.9,3.9-3.9,3.9H214
		c-2.3,0-3.9-1.9-3.9-3.9v-56.8C209.8,539.1,211.7,537.2,214,537.2z"/>
	<path id="path3773-0-4-8-4-60-3-86" class="st2" d="M242.2,549.5c-17.8,0-32.4,14.6-32.4,32.4c0,4.5,3.6,8.1,8.1,8.1
		c17.8,0,32.4-14.6,32.4-32.4C250.6,553.1,246.7,549.5,242.2,549.5z"/>
	<path id="path3962-5-8" class="st1" d="M230.2,557.6c-4.5,0-8.1,3.6-8.1,8.1s3.6,8.1,8.1,8.1c1.6,0,2.9-0.3,3.9-1v1
		c0,2.3-1.9,3.9-3.9,3.9c-1.6,0-2.9-1-3.6-2.3l-3.6,1.9c1.3,2.6,4.2,4.5,7.1,4.5c4.5,0,8.1-3.6,8.1-8.1v-8.1
		C238.3,561.2,234.7,557.6,230.2,557.6z M230.2,561.5c2.3,0,3.9,1.9,3.9,3.9s-1.9,3.9-3.9,3.9c-1.9,0-3.9-1.9-3.9-3.9
		S227.9,561.5,230.2,561.5z M226,582.6v1.6h8.1v-1.6H226z"/>
	<path id="path3962-5-6-2-1-9" class="st2" d="M215.9,551.5c2.3,0,3.9-1.9,3.9-3.9v-3.9c0-2.3-1.9-3.9-3.9-3.9
		c-1.9,0-3.9,1.9-3.9,3.9s1.9,3.9,3.9,3.9c0.6,0,1.3-0.3,1.9-0.6v0.6c0,1-1,1.9-1.9,1.9c-0.6,0-1.6-0.3-1.9-1l-1.9,1
		C213,550.5,214.3,551.5,215.9,551.5z M215.9,545.3c-1,0-1.9-1-1.9-1.9c0-1,1-1.9,1.9-1.9c1,0,1.9,1,1.9,1.9
		C217.9,544.3,217.2,545.3,215.9,545.3z"/>
	<path id="path3962-5-6-2-1-8-7" class="st2" d="M244.5,587.8c-2.3,0-3.9,1.9-3.9,3.9v3.9c0,2.3,1.9,3.9,3.9,3.9
		c2.3,0,3.9-1.9,3.9-3.9s-1.9-3.9-3.9-3.9c-0.6,0-1.3,0.3-1.9,0.6v-0.6c0-1,1-1.9,1.9-1.9c0.6,0,1.6,0.3,1.9,1l1.9-1
		C247.4,588.8,246.1,587.8,244.5,587.8z M244.5,593.9c1,0,1.9,1,1.9,1.9s-1,1.9-1.9,1.9c-1,0-1.9-1-1.9-1.9S243.2,593.9,244.5,593.9
		z"/>
</g>
</svg>
