<?xml version="1.0" encoding="utf-8"?>
<!-- Generator: Adobe Illustrator 19.0.0, SVG Export Plug-In . SVG Version: 6.00 Build 0)  -->
<svg version="1.1" id="Layer_1" xmlns="http://www.w3.org/2000/svg" xmlns:xlink="http://www.w3.org/1999/xlink" x="0px" y="0px"
	 viewBox="0 0 60 90" style="enable-background:new 0 0 60 90;" xml:space="preserve">
<style type="text/css">
	.st0{fill:#FFFFFF;stroke:#010101;stroke-width:0.5;}
	.st1{fill:#5555FF;}
	.st2{fill:#FFFFFF;}
</style>
<g id="g6643" transform="matrix(4,0,0,4,-1260,-2077.0865)">
	<path id="rect2987-8-5-81-25" class="st0" d="M317.5,519.3h10c1.4,0,2.5,1.1,2.5,2.5v17.5c0,1.4-1.1,2.5-2.5,2.5h-10
		c-1.4,0-2.5-1.1-2.5-2.5v-17.5C315,520.4,316.1,519.3,317.5,519.3z"/>
	<path id="rect3757-26-33-5-8" class="st1" d="M317.5,520.5h10c0.7,0,1.2,0.6,1.2,1.2v17.5c0,0.7-0.6,1.2-1.2,1.2h-10
		c-0.7,0-1.2-0.6-1.2-1.2v-17.5C316.2,521.1,316.8,520.5,317.5,520.5z"/>
	<path id="path3773-0-4-8-4-60-3-86-6" class="st2" d="M326.2,524.3c-5.5,0-10,4.5-10,10c0,1.4,1.1,2.5,2.5,2.5c5.5,0,10-4.5,10-10
		C328.8,525.4,327.6,524.3,326.2,524.3z"/>
	<path id="path5973-41" class="st1" d="M322.5,526.5l0.6,0.6l-2.5,2.5c-0.6,0.6-0.6,1.9,0,2.5l1.2-1.2l2.5-2.5l0.6,0.6v-2.5
		L322.5,526.5L322.5,526.5z"/>
	<path id="path5973-4-6" class="st1" d="M322.5,534.6l-0.6-0.6l2.5-2.5c0.6-0.6,0.6-1.9,0-2.5l-1.2,1.2l-2.5,2.5l-0.6-0.6v2.5
		L322.5,534.6L322.5,534.6z"/>
	<path id="path5973-6-5" class="st2" d="M318.1,521.1l0.3,0.3l-1.2,1.2c-0.3,0.3-0.3,0.9,0,1.2l0.6-0.6l1.2-1.2l0.3,0.3v-1.2H318.1z
		"/>
	<path id="path5973-4-3-5" class="st2" d="M318.1,525.2l-0.3-0.3l1.2-1.2c0.3-0.3,0.3-0.9,0-1.2l-0.6,0.6l-1.2,1.2l-0.3-0.3v1.2
		H318.1z"/>
	<path id="path5973-6-5-2" class="st2" d="M326.9,535.8l0.3,0.3l-1.2,1.2c-0.3,0.3-0.3,0.9,0,1.2l0.6-0.6l1.2-1.2l0.3,0.3v-1.2
		H326.9z"/>
	<path id="path5973-4-3-5-8" class="st2" d="M326.9,539.9l-0.3-0.3l1.2-1.2c0.3-0.3,0.3-0.9,0-1.2l-0.6,0.6L326,539l-0.3-0.3v1.2
		H326.9z"/>
</g>
</svg>
