<?xml version="1.0" encoding="utf-8"?>
<!-- Generator: Adobe Illustrator 19.0.0, SVG Export Plug-In . SVG Version: 6.00 Build 0)  -->
<svg version="1.1" id="Layer_1" xmlns="http://www.w3.org/2000/svg" xmlns:xlink="http://www.w3.org/1999/xlink" x="0px" y="0px"
	 viewBox="-439 51 200 300" style="enable-background:new -439 51 200 300;" xml:space="preserve">
<style type="text/css">
	.st0{fill:#FFFFFF;stroke:#010101;stroke-width:0.5;}
	.st1{fill:#5555FF;}
	.st2{fill:#FFFFFF;}
</style>
<g id="g6635" transform="matrix(4,0,0,4,-1260,-2077.0865)">
	<path id="rect2987-8-5-81-5" class="st0" d="M214,533.1h32.3c4.5,0,8.1,3.6,8.1,8.1v56.5c0,4.5-3.6,8.1-8.1,8.1H214
		c-4.5,0-8.1-3.6-8.1-8.1v-56.5C205.9,536.7,209.5,533.1,214,533.1z"/>
	<path id="rect3757-26-33-5-3" class="st1" d="M214,537h32.3c2.3,0,3.9,1.9,3.9,3.9v56.5c0,2.3-1.9,3.9-3.9,3.9H214
		c-2.3,0-3.9-1.9-3.9-3.9v-56.5C209.8,538.9,211.7,537,214,537z"/>
	<path id="path3773-0-4-8-4-60-3-86-2" class="st2" d="M242.1,549.3c-17.8,0-32.3,14.5-32.3,32.3c0,4.5,3.6,8.1,8.1,8.1
		c17.8,0,32.3-14.5,32.3-32.3C250.5,552.8,246.6,549.3,242.1,549.3z"/>
	<path id="path5897-6-5" class="st1" d="M230.1,557.3c-3.2,0-6.1,1.3-8.7,3.6c-4.8,4.8-4.8,12.3,0,17.1c4.8,4.8,12.3,4.8,17.1,0
		c4.8-4.8,4.8-12.3,0-17.1C236.3,558.3,233.4,557.3,230.1,557.3L230.1,557.3z M230.1,561.2c1.3,0,2.9,0.3,4.2,1l-11,11
		c-1.9-3.2-1.3-7.1,1.3-9.7C225.9,562.2,228.2,561.2,230.1,561.2z M237.2,565.1c1.9,3.2,1.3,7.1-1.3,9.7s-6.8,2.9-9.7,1.3
		L237.2,565.1z"/>
	<path id="path5897-6-8-2" class="st2" d="M218.2,538.9c-1.6,0-3.2,0.6-4.2,1.6c-2.3,2.3-2.3,6.1,0,8.7c2.3,2.3,6.1,2.3,8.7,0
		c2.6-2.3,2.3-6.1,0-8.7C221.1,539.6,219.5,538.9,218.2,538.9L218.2,538.9z M218.2,541.2c0.6,0,1.3,0.3,1.9,0.6l-5.5,5.5
		c-1-1.6-0.6-3.6,0.6-4.8C215.9,541.5,216.9,541.2,218.2,541.2z M221.4,543.1c1,1.6,0.6,3.6-0.6,4.8c-1.3,1.3-3.2,1.6-4.8,0.6
		L221.4,543.1L221.4,543.1z"/>
	<path id="path5897-6-8-5" class="st2" d="M242.4,587.4c-1.6,0-3.2,0.6-4.2,1.6c-2.3,2.3-2.3,6.1,0,8.7c2.3,2.3,6.1,2.3,8.7,0
		c2.3-2.3,2.3-6.1,0-8.7C245.3,588,243.7,587.4,242.4,587.4L242.4,587.4z M242.1,589.6c0.6,0,1.3,0.3,1.9,0.6l-5.5,5.5
		c-1-1.6-0.6-3.6,0.6-4.8C240.1,590,241.1,589.6,242.1,589.6z M245.6,591.6c1,1.6,0.6,3.6-0.6,4.8c-1.3,1.3-3.2,1.6-4.8,0.6
		L245.6,591.6L245.6,591.6z"/>
</g>
</svg>
