<?xml version="1.0" encoding="utf-8"?>
<!-- Generator: Adobe Illustrator 19.0.0, SVG Export Plug-In . SVG Version: 6.00 Build 0)  -->
<svg version="1.1" id="deck-back" xmlns="http://www.w3.org/2000/svg" xmlns:xlink="http://www.w3.org/1999/xlink" x="0px" y="0px"
	 viewBox="-439 51 200 300" style="enable-background:new -439 51 200 300;" xml:space="preserve">
<style type="text/css">
	.st0{fill:#FFFFFF;stroke:#020202;stroke-width:0.5;}
	.st1{fill:#FF1D1D;}
	.st2{fill:none;}
	.st3{font-family:'ArialMT';}
	.st4{font-size:58.8522px;}
	.st5{fill:#F7CE26;}
</style>
<g id="card-back" transform="matrix(4,0,0,4,-1260,-2077.0865)">
	<path id="rect2987-4_1_" class="st0" d="M213.7,532.7h32.7c4.6,0,8.2,3.6,8.2,8.2v57.2c0,4.6-3.6,8.2-8.2,8.2h-32.7
		c-4.6,0-8.2-3.6-8.2-8.2v-57.2C205.6,536.3,209.2,532.7,213.7,532.7z"/>
	<path id="rect3757-2_1_" d="M213.7,536.7h32.7c2.3,0,3.9,2,3.9,3.9v57.2c0,2.3-2,3.9-3.9,3.9h-32.7c-2.3,0-3.9-2-3.9-3.9v-57.2
		C209.5,538.6,211.5,536.7,213.7,536.7z"/>
	<path id="path3773-0-4-8-4-3_1_" class="st1" d="M242.2,549.1c-18,0-32.7,14.7-32.7,32.7c0,4.6,3.6,8.2,8.2,8.2
		c18,0,32.7-14.7,32.7-32.7C250.7,552.7,246.8,549.1,242.2,549.1z"/>
	<rect id="XMLID_1_" x="170.3" y="544.5" class="st2" width="120" height="53.6"/>
	<text id="XMLID_3_" transform="matrix(0.2372 -7.904758e-02 7.904758e-02 0.2372 217.0611 580.5934)" class="st3 st4">UNO</text>
	<text id="XMLID_2_" transform="matrix(0.2372 -7.904758e-02 7.904758e-02 0.2372 216.346 580.0831)" class="st5 st3 st4">UNO</text>
</g>
</svg>
