<?xml version="1.0" encoding="utf-8"?>
<!-- Generator: Adobe Illustrator 19.0.0, SVG Export Plug-In . SVG Version: 6.00 Build 0)  -->
<svg version="1.1" id="Layer_1" xmlns="http://www.w3.org/2000/svg" xmlns:xlink="http://www.w3.org/1999/xlink" x="0px" y="0px"
	 viewBox="0 0 60 90" style="enable-background:new 0 0 60 90;" xml:space="preserve">
<style type="text/css">
	.st0{fill:#FFFFFF;stroke:#010101;stroke-width:0.5;}
	.st1{fill:#55AA55;}
	.st2{fill:#FFFFFF;}
</style>
<g id="r0" transform="matrix(4,0,0,4,-1260,-2077.0865)">
	<path id="rect2987-1" class="st0" d="M317.5,519.3h10c1.4,0,2.5,1.1,2.5,2.5v17.5c0,1.4-1.1,2.5-2.5,2.5h-10
		c-1.4,0-2.5-1.1-2.5-2.5v-17.5C315,520.4,316.1,519.3,317.5,519.3z"/>
	<path id="rect3757-5" class="st1" d="M317.5,520.5h10c0.7,0,1.3,0.6,1.3,1.3v17.5c0,0.7-0.6,1.3-1.3,1.3h-10
		c-0.7,0-1.3-0.6-1.3-1.3v-17.5C316.3,521.1,316.8,520.5,317.5,520.5z"/>
	<path id="path3773-0-4-8-4-2" class="st2" d="M326.3,524.3c-5.5,0-10,4.5-10,10c0,1.4,1.1,2.5,2.5,2.5c5.5,0,10-4.5,10-10
		C328.8,525.4,327.6,524.3,326.3,524.3z"/>
	<path id="path3962-7" class="st1" d="M322.5,526.8c-1.4,0-2.5,1.1-2.5,2.5v2.5c0,1.4,1.1,2.5,2.5,2.5s2.5-1.1,2.5-2.5v-2.5
		C325,527.9,323.9,526.8,322.5,526.8z M322.5,528c0.7,0,1.3,0.6,1.3,1.3v2.5c0,0.7-0.6,1.3-1.3,1.3s-1.3-0.6-1.3-1.3v-2.5
		C321.3,528.6,321.8,528,322.5,528z"/>
	<path id="path3962-7-1" class="st2" d="M318.1,521.1c-0.7,0-1.3,0.6-1.3,1.3v1.3c0,0.7,0.6,1.3,1.3,1.3s1.3-0.6,1.3-1.3v-1.3
		C319.4,521.7,318.8,521.1,318.1,521.1z M318.1,521.8c0.3,0,0.6,0.3,0.6,0.6v1.3c0,0.3-0.3,0.6-0.6,0.6c-0.3,0-0.6-0.3-0.6-0.6v-1.3
		C317.5,522.1,317.8,521.8,318.1,521.8z"/>
	<path id="path3962-7-1-2" class="st2" d="M326.9,536.2c-0.7,0-1.3,0.6-1.3,1.3v1.3c0,0.7,0.6,1.3,1.3,1.3s1.3-0.6,1.3-1.3v-1.3
		C328.1,536.7,327.6,536.2,326.9,536.2z M326.9,536.8c0.3,0,0.6,0.3,0.6,0.6v1.3c0,0.3-0.3,0.6-0.6,0.6c-0.3,0-0.6-0.3-0.6-0.6v-1.3
		C326.3,537.1,326.5,536.8,326.9,536.8z"/>
</g>
</svg>
