<?xml version="1.0" encoding="utf-8"?>
<!-- Generator: Adobe Illustrator 19.0.0, SVG Export Plug-In . SVG Version: 6.00 Build 0)  -->
<svg version="1.1" id="Layer_1" xmlns="http://www.w3.org/2000/svg" xmlns:xlink="http://www.w3.org/1999/xlink" x="0px" y="0px"
	 viewBox="-439 51 200 300" style="enable-background:new -439 51 200 300;" xml:space="preserve">
<style type="text/css">
	.st0{fill:#FFFFFF;stroke:#010101;stroke-width:0.5;}
	.st1{fill:#55AA55;}
	.st2{fill:#FFFFFF;}
</style>
<g id="r0" transform="matrix(4,0,0,4,-1260,-2077.0865)">
	<path id="rect2987-1" class="st0" d="M214,532.9h32.5c4.5,0,8.1,3.6,8.1,8.1v56.9c0,4.5-3.6,8.1-8.1,8.1H214
		c-4.5,0-8.1-3.6-8.1-8.1V541C205.9,536.5,209.4,532.9,214,532.9z"/>
	<path id="rect3757-5" class="st1" d="M214,536.8h32.5c2.3,0,4.2,1.9,4.2,4.2v56.9c0,2.3-1.9,4.2-4.2,4.2H214
		c-2.3,0-4.2-1.9-4.2-4.2V541C210.1,538.8,211.7,536.8,214,536.8z"/>
	<path id="path3773-0-4-8-4-2" class="st2" d="M242.6,549.2c-17.9,0-32.5,14.6-32.5,32.5c0,4.5,3.6,8.1,8.1,8.1
		c17.9,0,32.5-14.6,32.5-32.5C250.7,552.7,246.8,549.2,242.6,549.2z"/>
	<path id="path3962-7" class="st1" d="M230.2,557.3c-4.5,0-8.1,3.6-8.1,8.1v8.1c0,4.5,3.6,8.1,8.1,8.1s8.1-3.6,8.1-8.1v-8.1
		C238.4,560.9,234.8,557.3,230.2,557.3z M230.2,561.2c2.3,0,4.2,1.9,4.2,4.2v8.1c0,2.3-1.9,4.2-4.2,4.2s-4.2-1.9-4.2-4.2v-8.1
		C226.3,563.1,228,561.2,230.2,561.2z"/>
	<path id="path3962-7-1" class="st2" d="M215.9,538.8c-2.3,0-4.2,1.9-4.2,4.2v4.2c0,2.3,1.9,4.2,4.2,4.2c2.3,0,4.2-1.9,4.2-4.2V543
		C220.2,540.7,218.2,538.8,215.9,538.8z M215.9,541c1,0,1.9,1,1.9,1.9v4.2c0,1-1,1.9-1.9,1.9c-1,0-1.9-1-1.9-1.9V543
		C214,542,215,541,215.9,541z"/>
	<path id="path3962-7-1-2" class="st2" d="M244.5,587.8c-2.3,0-4.2,1.9-4.2,4.2v4.2c0,2.3,1.9,4.2,4.2,4.2c2.3,0,4.2-1.9,4.2-4.2
		v-4.2C248.4,589.5,246.8,587.8,244.5,587.8z M244.5,589.8c1,0,1.9,1,1.9,1.9v4.2c0,1-1,1.9-1.9,1.9c-1,0-1.9-1-1.9-1.9v-4.2
		C242.6,590.8,243.2,589.8,244.5,589.8z"/>
</g>
</svg>
