<?xml version="1.0" encoding="utf-8"?>
<!-- Generator: Adobe Illustrator 19.0.0, SVG Export Plug-In . SVG Version: 6.00 Build 0)  -->
<svg version="1.1" id="Layer_1" xmlns="http://www.w3.org/2000/svg" xmlns:xlink="http://www.w3.org/1999/xlink" x="0px" y="0px"
	 viewBox="-439 51 200 300" style="enable-background:new -439 51 200 300;" xml:space="preserve">
<style type="text/css">
	.st0{fill:#FFFFFF;stroke:#010101;stroke-width:0.5;}
	.st1{fill:#55AA55;}
	.st2{fill:#FFFFFF;}
</style>
<g id="r1" transform="matrix(4,0,0,4,-1260,-2077.0865)">
	<path id="rect2987" class="st0" d="M214,532.9h32.5c4.5,0,8.1,3.6,8.1,8.1v56.9c0,4.5-3.6,8.1-8.1,8.1H214c-4.5,0-8.1-3.6-8.1-8.1
		V541C205.9,536.5,209.4,532.9,214,532.9z"/>
	<path id="rect3757" class="st1" d="M214,536.8h32.5c2.3,0,3.9,1.9,3.9,3.9v56.9c0,2.3-1.9,3.9-3.9,3.9H214c-2.3,0-3.9-1.9-3.9-3.9
		v-56.9C209.8,538.8,211.7,536.8,214,536.8z"/>
	<path id="path3773-0-4-8-4" class="st2" d="M242.3,549.2c-17.9,0-32.5,14.6-32.5,32.5c0,4.5,3.6,8.1,8.1,8.1
		c17.9,0,32.5-14.6,32.5-32.5C250.7,552.7,246.8,549.2,242.3,549.2z"/>
	<path id="rect3921" class="st1" d="M228.6,557.3l-3.9,3.9v4.9l3.9-3.9v19.5h3.9v-24.4H228.6z"/>
	<path id="rect3921-5" class="st2" d="M214,538.8l-1.9,1.9v2.6l1.9-1.9v9.7h1.9v-12.3H214z"/>
	<path id="rect3921-5-5" class="st2" d="M246.5,599.8l1.9-1.9v-2.6l-1.9,1.9v-9.7h-1.9v12.3H246.5z"/>
</g>
</svg>
