<?xml version="1.0" encoding="utf-8"?>
<!-- Generator: Adobe Illustrator 19.0.0, SVG Export Plug-In . SVG Version: 6.00 Build 0)  -->
<svg version="1.1" id="Layer_1" xmlns="http://www.w3.org/2000/svg" xmlns:xlink="http://www.w3.org/1999/xlink" x="0px" y="0px"
	 viewBox="-439 51 200 300" style="enable-background:new -439 51 200 300;" xml:space="preserve">
<style type="text/css">
	.st0{fill:#FFFFFF;stroke:#010101;stroke-width:0.5;}
	.st1{fill:#55AA55;}
	.st2{fill:#FFFFFF;}
</style>
<g id="g6611" transform="matrix(4,0,0,4,-1260,-2077.0865)">
	<path id="rect2987-4" class="st0" d="M214,532.9h32.5c4.5,0,8.1,3.6,8.1,8.1v56.9c0,4.5-3.6,8.1-8.1,8.1H214
		c-4.5,0-8.1-3.6-8.1-8.1V541C205.9,536.5,209.4,532.9,214,532.9z"/>
	<path id="rect3757-2" class="st1" d="M214,536.8h32.5c2.3,0,3.9,1.9,3.9,3.9v56.9c0,2.3-1.9,3.9-3.9,3.9H214
		c-2.3,0-3.9-1.9-3.9-3.9v-56.9C209.8,538.8,211.7,536.8,214,536.8z"/>
	<path id="path3773-0-4-8-4-3" class="st2" d="M242.3,549.2c-17.9,0-32.5,14.6-32.5,32.5c0,4.5,3.6,8.1,8.1,8.1
		c17.9,0,32.5-14.6,32.5-32.5C250.7,552.7,246.8,549.2,242.3,549.2z"/>
	<path id="rect4014" class="st1" d="M223.4,557.3v8.1h3.9v-4.2h8.1l-8.1,20.1h3.9l8.1-20.1v-3.9H227H223.4z"/>
	<path id="rect4014-3" class="st2" d="M212,538.8v3.9h1.9v-1.9h3.9l-3.9,10.1h1.9l3.9-10.1v-1.9h-6.2L212,538.8L212,538.8z"/>
	<path id="rect4014-3-3" class="st2" d="M248.4,599.8V596h-1.9v1.9h-3.9l3.9-10.1h-1.9l-3.9,10.1v1.9h6.2L248.4,599.8L248.4,599.8z"
		/>
</g>
</svg>
