<?xml version="1.0" encoding="utf-8"?>
<!-- Generator: Adobe Illustrator 19.0.0, SVG Export Plug-In . SVG Version: 6.00 Build 0)  -->
<svg version="1.1" id="Layer_1" xmlns="http://www.w3.org/2000/svg" xmlns:xlink="http://www.w3.org/1999/xlink" x="0px" y="0px"
	 viewBox="0 0 60 90" style="enable-background:new 0 0 60 90;" xml:space="preserve">
<style type="text/css">
	.st0{fill:#FFFFFF;stroke:#010101;stroke-width:0.5;}
	.st1{fill:#55AA55;}
	.st2{fill:#FFFFFF;}
</style>
<g id="g6611" transform="matrix(4,0,0,4,-1260,-2077.0865)">
	<path id="rect2987-4" class="st0" d="M317.5,519.3h10c1.4,0,2.5,1.1,2.5,2.5v17.5c0,1.4-1.1,2.5-2.5,2.5h-10
		c-1.4,0-2.5-1.1-2.5-2.5v-17.5C315,520.4,316.1,519.3,317.5,519.3z"/>
	<path id="rect3757-2" class="st1" d="M317.5,520.5h10c0.7,0,1.2,0.6,1.2,1.2v17.5c0,0.7-0.6,1.2-1.2,1.2h-10
		c-0.7,0-1.2-0.6-1.2-1.2v-17.5C316.2,521.1,316.8,520.5,317.5,520.5z"/>
	<path id="path3773-0-4-8-4-3" class="st2" d="M326.2,524.3c-5.5,0-10,4.5-10,10c0,1.4,1.1,2.5,2.5,2.5c5.5,0,10-4.5,10-10
		C328.8,525.4,327.6,524.3,326.2,524.3z"/>
	<path id="rect4014" class="st1" d="M320.4,526.8v2.5h1.2V528h2.5l-2.5,6.2h1.2l2.5-6.2v-1.2h-3.8H320.4z"/>
	<path id="rect4014-3" class="st2" d="M316.9,521.1v1.2h0.6v-0.6h1.2l-1.2,3.1h0.6l1.2-3.1v-0.6h-1.9L316.9,521.1L316.9,521.1z"/>
	<path id="rect4014-3-3" class="st2" d="M328.1,539.9v-1.2h-0.6v0.6h-1.2l1.2-3.1h-0.6l-1.2,3.1v0.6h1.9L328.1,539.9L328.1,539.9z"
		/>
</g>
</svg>
