<?xml version="1.0" encoding="utf-8"?>
<!-- Generator: Adobe Illustrator 19.0.0, SVG Export Plug-In . SVG Version: 6.00 Build 0)  -->
<svg version="1.1" id="Layer_1" xmlns="http://www.w3.org/2000/svg" xmlns:xlink="http://www.w3.org/1999/xlink" x="0px" y="0px"
	 viewBox="0 0 60 90" style="enable-background:new 0 0 60 90;" xml:space="preserve">
<style type="text/css">
	.st0{fill:#FFFFFF;stroke:#010101;stroke-width:0.5;}
	.st1{fill:#55AA55;}
	.st2{fill:#FFFFFF;}
</style>
<g id="g6619" transform="matrix(4,0,0,4,-1260,-2077.0865)">
	<path id="rect2987-8-5-8" class="st0" d="M317.5,519.3h10c1.4,0,2.5,1.1,2.5,2.5v17.5c0,1.4-1.1,2.5-2.5,2.5h-10
		c-1.4,0-2.5-1.1-2.5-2.5v-17.5C315,520.4,316.1,519.3,317.5,519.3z"/>
	<path id="rect3757-26-33-9" class="st1" d="M317.5,520.5h10c0.7,0,1.2,0.6,1.2,1.2v17.5c0,0.7-0.6,1.2-1.2,1.2h-10
		c-0.7,0-1.2-0.6-1.2-1.2v-17.5C316.2,521.1,316.8,520.5,317.5,520.5z"/>
	<path id="path3773-0-4-8-4-60-3-0" class="st2" d="M326.2,524.3c-5.5,0-10,4.5-10,10c0,1.4,1.1,2.5,2.5,2.5c5.5,0,10-4.5,10-10
		C328.8,525.4,327.6,524.3,326.2,524.3z"/>
	<path id="rect3163-52-9-8-1-1-2-7-3-6-4-6-1-8-8-5" class="st1" d="M322.5,526.8c-1,0-1.9,0.8-1.9,1.9c0,0.4,0.1,0.8,0.4,1.1
		c-0.6,0.5-1,1.2-1,2c0,1.4,1.1,2.5,2.5,2.5s2.5-1.1,2.5-2.5c0-0.8-0.4-1.5-1-2c0.2-0.3,0.4-0.7,0.4-1.1
		C324.4,527.6,323.5,526.8,322.5,526.8z M322.5,528c0.3,0,0.6,0.3,0.6,0.6s-0.3,0.6-0.6,0.6s-0.6-0.3-0.6-0.6S322.2,528,322.5,528z
		 M322.4,530.5h0.1c0.7,0,1.2,0.6,1.2,1.2s-0.6,1.2-1.2,1.2s-1.2-0.6-1.2-1.2C321.2,531.1,321.7,530.6,322.4,530.5z"/>
	<path id="rect3163-52-9-8-1-1-2-7-3-6-4-6-1-8-8-2-1" class="st2" d="M318.1,521.1c-0.5,0-0.9,0.4-0.9,0.9c0,0.2,0.1,0.4,0.2,0.6
		c-0.3,0.2-0.5,0.6-0.5,1c0,0.7,0.6,1.2,1.2,1.2s1.2-0.6,1.2-1.2c0-0.4-0.2-0.8-0.5-1c0.1-0.2,0.2-0.4,0.2-0.6
		C319.1,521.6,318.6,521.1,318.1,521.1z M318.1,521.8c0.2,0,0.3,0.1,0.3,0.3s-0.1,0.3-0.3,0.3s-0.3-0.1-0.3-0.3
		S318,521.8,318.1,521.8z M318.1,523L318.1,523c0.4,0,0.7,0.3,0.7,0.6s-0.3,0.6-0.6,0.6s-0.6-0.3-0.6-0.6
		C317.5,523.3,317.7,523.1,318.1,523z"/>
	<path id="rect3163-52-9-8-1-1-2-7-3-6-4-6-1-8-8-2-1-1" class="st2" d="M326.9,539.9c-0.5,0-0.9-0.4-0.9-0.9c0-0.2,0.1-0.4,0.2-0.6
		c-0.3-0.2-0.5-0.6-0.5-1c0-0.7,0.6-1.2,1.2-1.2s1.2,0.6,1.2,1.2c0,0.4-0.2,0.8-0.5,1c0.1,0.2,0.2,0.4,0.2,0.6
		C327.8,539.5,327.4,539.9,326.9,539.9z M326.9,539.3c0.2,0,0.3-0.1,0.3-0.3s-0.1-0.3-0.3-0.3c-0.2,0-0.3,0.1-0.3,0.3
		S326.7,539.3,326.9,539.3z M326.8,538C326.8,538,326.9,538,326.8,538c0.4,0,0.7-0.3,0.7-0.6s-0.3-0.6-0.6-0.6s-0.6,0.3-0.6,0.6
		C326.2,537.7,326.5,538,326.8,538z"/>
</g>
</svg>
