<?xml version="1.0" encoding="utf-8"?>
<!-- Generator: Adobe Illustrator 19.0.0, SVG Export Plug-In . SVG Version: 6.00 Build 0)  -->
<svg version="1.1" id="Layer_1" xmlns="http://www.w3.org/2000/svg" xmlns:xlink="http://www.w3.org/1999/xlink" x="0px" y="0px"
	 viewBox="-439 51 200 300" style="enable-background:new -439 51 200 300;" xml:space="preserve">
<style type="text/css">
	.st0{fill:#FFFFFF;stroke:#010101;stroke-width:0.5;}
	.st1{fill:#55AA55;}
	.st2{fill:#FFFFFF;}
</style>
<g id="g6627" transform="matrix(4,0,0,4,-1260,-2077.0865)">
	<path id="rect2987-8-5-81" class="st0" d="M214,532.9h32.5c4.5,0,8.1,3.6,8.1,8.1v56.9c0,4.5-3.6,8.1-8.1,8.1H214
		c-4.5,0-8.1-3.6-8.1-8.1V541C205.9,536.5,209.4,532.9,214,532.9z"/>
	<path id="rect3757-26-33-5" class="st1" d="M214,536.8h32.5c2.3,0,3.9,1.9,3.9,3.9v56.9c0,2.3-1.9,3.9-3.9,3.9H214
		c-2.3,0-3.9-1.9-3.9-3.9v-56.9C209.8,538.8,211.7,536.8,214,536.8z"/>
	<path id="path3773-0-4-8-4-60-3-86" class="st2" d="M242.3,549.2c-17.9,0-32.5,14.6-32.5,32.5c0,4.5,3.6,8.1,8.1,8.1
		c17.9,0,32.5-14.6,32.5-32.5C250.7,552.7,246.8,549.2,242.3,549.2z"/>
	<path id="path3962-5-8" class="st1" d="M230.2,557.3c-4.5,0-8.1,3.6-8.1,8.1c0,4.5,3.6,8.1,8.1,8.1c1.6,0,2.9-0.3,3.9-1v1
		c0,2.3-1.9,3.9-3.9,3.9c-1.6,0-2.9-1-3.6-2.3l-3.6,1.9c1.3,2.6,4.2,4.5,7.1,4.5c4.5,0,8.1-3.6,8.1-8.1v-8.1
		C238.4,560.9,234.8,557.3,230.2,557.3z M230.2,561.2c2.3,0,3.9,1.9,3.9,3.9s-1.9,3.9-3.9,3.9s-3.9-1.9-3.9-3.9
		S228,561.2,230.2,561.2z M226,582.3v1.6h8.1v-1.6H226z"/>
	<path id="path3962-5-6-2-1-9" class="st2" d="M215.9,551.1c2.3,0,3.9-1.9,3.9-3.9v-3.9c0-2.3-1.9-3.9-3.9-3.9s-3.9,1.9-3.9,3.9
		s1.9,3.9,3.9,3.9c0.6,0,1.3-0.3,1.9-0.6v0.6c0,1-1,1.9-1.9,1.9c-0.6,0-1.6-0.3-1.9-1l-1.9,1C213,550.1,214.3,551.1,215.9,551.1z
		 M215.9,544.9c-1,0-1.9-1-1.9-1.9c0-1,1-1.9,1.9-1.9c1,0,1.9,1,1.9,1.9C217.9,544,217.2,544.9,215.9,544.9z"/>
	<path id="path3962-5-6-2-1-8-7" class="st2" d="M244.5,587.5c-2.3,0-3.9,1.9-3.9,3.9v3.9c0,2.3,1.9,3.9,3.9,3.9
		c2.3,0,3.9-1.9,3.9-3.9c0-1.9-1.9-3.9-3.9-3.9c-0.6,0-1.3,0.3-1.9,0.6v-0.6c0-1,1-1.9,1.9-1.9c0.6,0,1.6,0.3,1.9,1l1.9-1
		C247.5,588.5,246.2,587.5,244.5,587.5z M244.5,593.7c1,0,1.9,1,1.9,1.9c0,1-1,1.9-1.9,1.9c-1,0-1.9-1-1.9-1.9
		C242.6,594.7,243.2,593.7,244.5,593.7z"/>
</g>
</svg>
