<?xml version="1.0" encoding="utf-8"?>
<!-- Generator: Adobe Illustrator 19.0.0, SVG Export Plug-In . SVG Version: 6.00 Build 0)  -->
<svg version="1.1" id="Layer_1" xmlns="http://www.w3.org/2000/svg" xmlns:xlink="http://www.w3.org/1999/xlink" x="0px" y="0px"
	 viewBox="0 0 60 90" style="enable-background:new 0 0 60 90;" xml:space="preserve">
<style type="text/css">
	.st0{fill:#FFFFFF;stroke:#010101;stroke-width:0.5;}
	.st1{fill:#55AA55;}
	.st2{fill:#FFFFFF;}
</style>
<g id="g6627" transform="matrix(4,0,0,4,-1260,-2077.0865)">
	<path id="rect2987-8-5-81" class="st0" d="M317.5,519.3h10c1.4,0,2.5,1.1,2.5,2.5v17.5c0,1.4-1.1,2.5-2.5,2.5h-10
		c-1.4,0-2.5-1.1-2.5-2.5v-17.5C315,520.4,316.1,519.3,317.5,519.3z"/>
	<path id="rect3757-26-33-5" class="st1" d="M317.5,520.5h10c0.7,0,1.2,0.6,1.2,1.2v17.5c0,0.7-0.6,1.2-1.2,1.2h-10
		c-0.7,0-1.2-0.6-1.2-1.2v-17.5C316.2,521.1,316.8,520.5,317.5,520.5z"/>
	<path id="path3773-0-4-8-4-60-3-86" class="st2" d="M326.2,524.3c-5.5,0-10,4.5-10,10c0,1.4,1.1,2.5,2.5,2.5c5.5,0,10-4.5,10-10
		C328.8,525.4,327.6,524.3,326.2,524.3z"/>
	<path id="path3962-5-8" class="st1" d="M322.5,526.8c-1.4,0-2.5,1.1-2.5,2.5s1.1,2.5,2.5,2.5c0.5,0,0.9-0.1,1.2-0.3v0.3
		c0,0.7-0.6,1.2-1.2,1.2c-0.5,0-0.9-0.3-1.1-0.7l-1.1,0.6c0.4,0.8,1.3,1.4,2.2,1.4c1.4,0,2.5-1.1,2.5-2.5v-2.5
		C325,527.9,323.9,526.8,322.5,526.8z M322.5,528c0.7,0,1.2,0.6,1.2,1.2s-0.6,1.2-1.2,1.2s-1.2-0.6-1.2-1.2S321.8,528,322.5,528z
		 M321.2,534.5v0.5h2.5v-0.5H321.2z"/>
	<path id="path3962-5-6-2-1-9" class="st2" d="M318.1,524.9c0.7,0,1.2-0.6,1.2-1.2v-1.2c0-0.7-0.6-1.2-1.2-1.2s-1.2,0.6-1.2,1.2
		s0.6,1.2,1.2,1.2c0.2,0,0.4-0.1,0.6-0.2v0.2c0,0.3-0.3,0.6-0.6,0.6c-0.2,0-0.5-0.1-0.6-0.3l-0.6,0.3
		C317.2,524.6,317.6,524.9,318.1,524.9z M318.1,523c-0.3,0-0.6-0.3-0.6-0.6s0.3-0.6,0.6-0.6s0.6,0.3,0.6,0.6S318.5,523,318.1,523z"
		/>
	<path id="path3962-5-6-2-1-8-7" class="st2" d="M326.9,536.1c-0.7,0-1.2,0.6-1.2,1.2v1.2c0,0.7,0.6,1.2,1.2,1.2
		c0.7,0,1.2-0.6,1.2-1.2s-0.6-1.2-1.2-1.2c-0.2,0-0.4,0.1-0.6,0.2v-0.2c0-0.3,0.3-0.6,0.6-0.6c0.2,0,0.5,0.1,0.6,0.3l0.6-0.3
		C327.8,536.4,327.4,536.1,326.9,536.1z M326.9,538c0.3,0,0.6,0.3,0.6,0.6s-0.3,0.6-0.6,0.6s-0.6-0.3-0.6-0.6S326.5,538,326.9,538z"
		/>
</g>
</svg>
