<?xml version="1.0" encoding="utf-8"?>
<!-- Generator: Adobe Illustrator 19.0.0, SVG Export Plug-In . SVG Version: 6.00 Build 0)  -->
<svg version="1.1" id="Layer_1" xmlns="http://www.w3.org/2000/svg" xmlns:xlink="http://www.w3.org/1999/xlink" x="0px" y="0px"
	 viewBox="-299 51 200 300" style="enable-background:new -299 51 200 300;" xml:space="preserve">
<style type="text/css">
	.st0{fill:#FFFFFF;stroke:#010101;stroke-width:0.5;}
	.st1{fill:#55AA55;}
	.st2{fill:#FFFFFF;}
</style>
<g id="g6635" transform="matrix(4,0,0,4,-1260,-2077.0865)">
	<path id="rect2987-8-5-81-5" class="st0" d="M249,533h32.5c4.5,0,8.1,3.6,8.1,8.1V598c0,4.5-3.6,8.1-8.1,8.1H249
		c-4.5,0-8.1-3.6-8.1-8.1v-56.9C241.2,536.6,244.8,533,249,533z"/>
	<path id="rect3757-26-33-5-3" class="st1" d="M249,536.9h32.5c2.3,0,3.9,1.9,3.9,3.9v56.9c0,2.3-1.9,3.9-3.9,3.9H249
		c-2.3,0-3.9-1.9-3.9-3.9v-56.9C245.1,538.9,246.7,536.9,249,536.9z"/>
	<path id="path3773-0-4-8-4-60-3-86-2" class="st2" d="M277.6,549.3c-17.9,0-32.5,14.6-32.5,32.5c0,4.5,3.6,8.1,8.1,8.1
		c17.9,0,32.5-14.6,32.5-32.5C285.7,552.8,282.1,549.3,277.6,549.3z"/>
	<path id="path5897-6-5" class="st1" d="M265.2,557.4c-3.2,0-6.2,1.3-8.8,3.6c-4.9,4.9-4.9,12.3,0,17.2s12.3,4.9,17.2,0
		c4.9-4.9,4.9-12.3,0-17.2C271.4,558.4,268.5,557.4,265.2,557.4L265.2,557.4z M265.2,561.3c1.3,0,2.9,0.3,4.2,1l-11,11
		c-1.9-3.2-1.3-7.1,1.3-9.7C261.3,562.3,263.3,561.3,265.2,561.3z M272.7,565.2c1.9,3.2,1.3,7.1-1.3,9.7s-6.8,2.9-9.7,1.3
		L272.7,565.2z"/>
	<path id="path5897-6-8-2" class="st2" d="M253.2,538.9c-1.6,0-3.2,0.6-4.2,1.6c-2.3,2.3-2.3,6.2,0,8.8c2.3,2.3,6.2,2.3,8.8,0
		c2.6-2.3,2.3-6.2,0-8.8C256.5,539.5,254.8,538.9,253.2,538.9L253.2,538.9z M253.2,541.1c0.6,0,1.3,0.3,1.9,0.6l-5.5,5.5
		c-1-1.6-0.6-3.6,0.6-4.9C251.3,541.5,251.9,541.1,253.2,541.1z M256.5,543.1c1,1.6,0.6,3.6-0.6,4.9c-1.3,1.3-3.2,1.6-4.9,0.6
		L256.5,543.1L256.5,543.1z"/>
	<path id="path5897-6-8-5" class="st2" d="M277.6,587.6c-1.6,0-3.2,0.6-4.2,1.6c-2.3,2.3-2.3,6.2,0,8.8c2.3,2.3,6.2,2.3,8.8,0
		c2.3-2.3,2.3-6.2,0-8.8C280.8,588.3,279.2,587.6,277.6,587.6L277.6,587.6z M277.6,589.9c0.6,0,1.3,0.3,1.9,0.6L274,596
		c-1-1.6-0.6-3.6,0.6-4.9C275.6,590.2,276.3,589.9,277.6,589.9z M280.8,591.8c1,1.6,0.6,3.6-0.6,4.9c-1.3,1.3-3.2,1.6-4.9,0.6
		L280.8,591.8L280.8,591.8z"/>
</g>
</svg>
