<?xml version="1.0" encoding="utf-8"?>
<!-- Generator: Adobe Illustrator 19.0.0, SVG Export Plug-In . SVG Version: 6.00 Build 0)  -->
<svg version="1.1" id="Layer_1" xmlns="http://www.w3.org/2000/svg" xmlns:xlink="http://www.w3.org/1999/xlink" x="0px" y="0px"
	 viewBox="0 0 60 90" style="enable-background:new 0 0 60 90;" xml:space="preserve">
<style type="text/css">
	.st0{fill:#FFFFFF;stroke:#010101;stroke-width:0.5;}
	.st1{fill:#F15858;}
	.st2{fill:#FFFFFF;}
</style>
<g id="r1" transform="matrix(4,0,0,4,-1260,-2077.0865)">
	<path id="rect2987" class="st0" d="M317.5,519.3h10c1.4,0,2.5,1.1,2.5,2.5v17.5c0,1.4-1.1,2.5-2.5,2.5h-10c-1.4,0-2.5-1.1-2.5-2.5
		v-17.5C315,520.4,316.1,519.3,317.5,519.3z"/>
	<path id="rect3757" class="st1" d="M317.5,520.5h10c0.7,0,1.2,0.6,1.2,1.2v17.5c0,0.7-0.6,1.2-1.2,1.2h-10c-0.7,0-1.2-0.6-1.2-1.2
		v-17.5C316.2,521.1,316.8,520.5,317.5,520.5z"/>
	<path id="path3773-0-4-8-4" class="st2" d="M326.2,524.3c-5.5,0-10,4.5-10,10c0,1.4,1.1,2.5,2.5,2.5c5.5,0,10-4.5,10-10
		C328.8,525.4,327.6,524.3,326.2,524.3z"/>
	<path id="rect3921" class="st1" d="M322,526.8l-1.2,1.2v1.5l1.2-1.2v6h1.2v-7.5H322z"/>
	<path id="rect3921-5" class="st2" d="M317.5,521.1l-0.6,0.6v0.8l0.6-0.6v3h0.6v-3.8H317.5z"/>
	<path id="rect3921-5-5" class="st2" d="M327.5,539.9l0.6-0.6v-0.8l-0.6,0.6v-3h-0.6v3.8H327.5z"/>
</g>
</svg>
