<?xml version="1.0" encoding="utf-8"?>
<!-- Generator: Adobe Illustrator 19.0.0, SVG Export Plug-In . SVG Version: 6.00 Build 0)  -->
<svg version="1.1" id="Layer_1" xmlns="http://www.w3.org/2000/svg" xmlns:xlink="http://www.w3.org/1999/xlink" x="0px" y="0px"
	 viewBox="-439 51 200 300" style="enable-background:new -439 51 200 300;" xml:space="preserve">
<style type="text/css">
	.st0{fill:#FFFFFF;stroke:#010101;stroke-width:0.5;}
	.st1{fill:#F15858;}
	.st2{fill:#FFFFFF;}
</style>
<g id="g6603" transform="matrix(4,0,0,4,-1260,-2077.0865)">
	<path id="rect2987-8-5-7" class="st0" d="M214,532.9h32.5c4.5,0,8.1,3.6,8.1,8.1v56.9c0,4.5-3.6,8.1-8.1,8.1H214
		c-4.5,0-8.1-3.6-8.1-8.1V541C205.9,536.5,209.4,532.9,214,532.9z"/>
	<path id="rect3757-26-33-2" class="st1" d="M214,536.8h32.5c2.3,0,3.9,1.9,3.9,3.9v56.9c0,2.3-1.9,3.9-3.9,3.9H214
		c-2.3,0-3.9-1.9-3.9-3.9v-56.9C209.8,538.8,211.7,536.8,214,536.8z"/>
	<path id="path3773-0-4-8-4-60-3-2" class="st2" d="M242.3,549.2c-17.9,0-32.5,14.6-32.5,32.5c0,4.5,3.6,8.1,8.1,8.1
		c17.9,0,32.5-14.6,32.5-32.5C250.7,552.7,246.8,549.2,242.3,549.2z"/>
	<path id="path3962-5-6-2" class="st1" d="M230.2,557.3c-4.5,0-8.1,3.6-8.1,8.1v8.1c0,4.5,3.6,8.1,8.1,8.1s8.1-3.6,8.1-8.1
		c0-4.5-3.6-8.1-8.1-8.1c-1.6,0-2.9,0.3-3.9,1v-1c0-2.3,1.9-3.9,3.9-3.9c1.6,0,2.9,1,3.6,2.3l3.6-1.9
		C236.1,558.9,233.5,557.3,230.2,557.3z M230.2,569.3c2.3,0,3.9,1.9,3.9,3.9c0,1.9-1.9,3.9-3.9,3.9s-3.9-1.9-3.9-3.9
		C226.3,571.3,228,569.3,230.2,569.3z M226,582.3v1.6h8.1v-1.6H226z"/>
	<path id="path3962-5-6-2-1" class="st2" d="M215.9,538.8c-2.3,0-3.9,1.9-3.9,3.9v3.9c0,2.3,1.9,3.9,3.9,3.9s3.9-1.9,3.9-3.9
		c0-1.9-1.9-3.9-3.9-3.9c-0.6,0-1.3,0.3-1.9,0.6v-0.6c0-1,1-1.9,1.9-1.9c0.6,0,1.6,0.3,1.9,1l1.9-1
		C218.9,539.7,217.6,538.8,215.9,538.8z M215.9,544.9c1,0,1.9,1,1.9,1.9c0,1-1,1.9-1.9,1.9c-1,0-1.9-1-1.9-1.9
		C214,545.9,215,544.9,215.9,544.9z"/>
	<path id="path3962-5-6-2-1-8" class="st2" d="M244.5,599.8c2.3,0,3.9-1.9,3.9-3.9v-3.9c0-2.3-1.9-3.9-3.9-3.9s-3.9,1.9-3.9,3.9
		s1.9,3.9,3.9,3.9c0.6,0,1.3-0.3,1.9-0.6v0.6c0,1-1,1.9-1.9,1.9c-0.6,0-1.6-0.3-1.9-1l-1.9,1C241.6,598.9,242.9,599.8,244.5,599.8z
		 M244.5,593.7c-1,0-1.9-1-1.9-1.9c0-1,1-1.9,1.9-1.9c1,0,1.9,1,1.9,1.9C246.5,592.7,245.5,593.7,244.5,593.7z"/>
</g>
</svg>
