<?xml version="1.0" encoding="utf-8"?>
<!-- Generator: Adobe Illustrator 19.0.0, SVG Export Plug-In . SVG Version: 6.00 Build 0)  -->
<svg version="1.1" id="Layer_1" xmlns="http://www.w3.org/2000/svg" xmlns:xlink="http://www.w3.org/1999/xlink" x="0px" y="0px"
	 viewBox="0 0 60 90" style="enable-background:new 0 0 60 90;" xml:space="preserve">
<style type="text/css">
	.st0{fill:#FFFFFF;stroke:#010101;stroke-width:0.5;}
	.st1{fill:#F15858;}
	.st2{fill:#FFFFFF;}
</style>
<g id="g6635" transform="matrix(4,0,0,4,-1260,-2077.0865)">
	<path id="rect2987-8-5-81-5" class="st0" d="M317.5,519.3h10c1.4,0,2.5,1.1,2.5,2.5v17.5c0,1.4-1.1,2.5-2.5,2.5h-10
		c-1.4,0-2.5-1.1-2.5-2.5v-17.5C315,520.4,316.1,519.3,317.5,519.3z"/>
	<path id="rect3757-26-33-5-3" class="st1" d="M317.5,520.5h10c0.7,0,1.2,0.6,1.2,1.2v17.5c0,0.7-0.6,1.2-1.2,1.2h-10
		c-0.7,0-1.2-0.6-1.2-1.2v-17.5C316.2,521.1,316.8,520.5,317.5,520.5z"/>
	<path id="path3773-0-4-8-4-60-3-86-2" class="st2" d="M326.2,524.3c-5.5,0-10,4.5-10,10c0,1.4,1.1,2.5,2.5,2.5c5.5,0,10-4.5,10-10
		C328.8,525.4,327.6,524.3,326.2,524.3z"/>
	<path id="path5897-6-5" class="st1" d="M322.5,526.8c-1,0-1.9,0.4-2.7,1.1c-1.5,1.5-1.5,3.8,0,5.3c1.5,1.5,3.8,1.5,5.3,0
		c1.5-1.5,1.5-3.8,0-5.3C324.4,527.1,323.5,526.8,322.5,526.8L322.5,526.8z M322.5,528c0.4,0,0.9,0.1,1.3,0.3l-3.4,3.4
		c-0.6-1-0.4-2.2,0.4-3C321.2,528.3,321.9,528,322.5,528z M324.7,529.2c0.6,1,0.4,2.2-0.4,3c-0.8,0.8-2.1,0.9-3,0.4L324.7,529.2z"/>
	<path id="path5897-6-8-2" class="st2" d="M318.8,521.1c-0.5,0-1,0.2-1.3,0.5c-0.7,0.7-0.7,1.9,0,2.7c0.7,0.7,1.9,0.7,2.7,0
		s0.7-1.9,0-2.7C319.7,521.3,319.2,521.1,318.8,521.1L318.8,521.1z M318.8,521.8c0.2,0,0.4,0.1,0.6,0.2l-1.7,1.7
		c-0.3-0.5-0.2-1.1,0.2-1.5C318.1,521.9,318.4,521.8,318.8,521.8z M319.8,522.4c0.3,0.5,0.2,1.1-0.2,1.5c-0.4,0.4-1,0.5-1.5,0.2
		L319.8,522.4L319.8,522.4z"/>
	<path id="path5897-6-8-5" class="st2" d="M326.3,536.1c-0.5,0-1,0.2-1.3,0.5c-0.7,0.7-0.7,1.9,0,2.7c0.7,0.7,1.9,0.7,2.7,0
		c0.7-0.7,0.7-1.9,0-2.7C327.2,536.3,326.7,536.1,326.3,536.1L326.3,536.1z M326.2,536.8c0.2,0,0.4,0.1,0.6,0.2l-1.7,1.7
		c-0.3-0.5-0.2-1.1,0.2-1.5C325.6,536.9,325.9,536.8,326.2,536.8z M327.3,537.4c0.3,0.5,0.2,1.1-0.2,1.5c-0.4,0.4-1,0.5-1.5,0.2
		L327.3,537.4L327.3,537.4z"/>
</g>
</svg>
