<?xml version="1.0" encoding="utf-8"?>
<!-- Generator: Adobe Illustrator 19.0.0, SVG Export Plug-In . SVG Version: 6.00 Build 0)  -->
<svg version="1.1" id="Layer_1" xmlns="http://www.w3.org/2000/svg" xmlns:xlink="http://www.w3.org/1999/xlink" x="0px" y="0px"
	 viewBox="0 0 60 90" style="enable-background:new 0 0 60 90;" xml:space="preserve">
<style type="text/css">
	.st0{fill:#FFFFFF;stroke:#010101;}
	.st1{fill:#010101;}
	.st2{fill:#FFFFFF;}
	.st3{fill:#FBAA19;}
	.st4{fill:#11AA4B;}
	.st5{fill:#F15858;}
	.st6{fill:#5861AC;}
	.st7{fill:none;stroke:#FFFFFF;stroke-width:4;}
</style>
<g id="g9888-0-5" transform="translate(0,-1.3652344e-5)">
	<path id="rect2987-8-5-81-2-4-9" class="st0" d="M10,0h40c5.5,0,10,4.5,10,10v70c0,5.5-4.5,10-10,10H10C4.5,90,0,85.5,0,80V10
		C0,4.5,4.5,0,10,0z"/>
	<path id="rect3757-26-33-5-9-0-0" class="st1" d="M10,5h40c2.8,0,5,2.2,5,5v70c0,2.8-2.2,5-5,5H10c-2.8,0-5-2.2-5-5V10
		C5,7.2,7.2,5,10,5z"/>
	<path id="path3773-0-4-8-4-60-3-86-5-7-5" class="st2" d="M45,20C22.9,20,5,37.9,5,60c0,5.5,4.5,10,10,10c22.1,0,40-17.9,40-40
		C55,24.5,50.5,20,45,20z"/>
	<path id="path3773-0-4-8-8-7-9-0-9-1" class="st3" d="M7.9,45C6.1,49.6,5,54.7,5,60c0,5.5,4.5,10,10,10l15-25H7.9z"/>
	<path id="path3773-0-4-8-8-5-6-5-0-08-2" class="st4" d="M30,45L15,70c16.8,0,31.1-10.3,37.1-25H30z"/>
	<path id="path3773-0-4-8-8-1-4-3-1-0" class="st5" d="M45,20C28.2,20,13.9,30.3,7.9,45H30L45,20z"/>
	<path id="path3773-0-4-8-8-5-8-3-9-4-9" class="st6" d="M45,20L30,45h22.1c1.9-4.6,2.9-9.7,2.9-15C55,24.5,50.5,20,45,20z"/>
	<path id="path3773-0-4-8-8-7-9-5-7-0-8" class="st3" d="M8.2,13.7c-0.5,1.2-0.7,2.4-0.7,3.8c0,1.4,1.1,2.5,2.5,2.5l3.8-6.2H8.2z"/>
	<path id="path3773-0-4-8-8-5-6-5-08-9-79-9" class="st4" d="M13.8,13.7L10,20c4.2,0,7.8-2.6,9.3-6.2H13.8z"/>
	<path id="path3773-0-4-8-8-1-4-39-9-5-1" class="st5" d="M17.5,7.5c-4.2,0-7.8,2.6-9.3,6.2h5.5L17.5,7.5z"/>
	<path id="path3773-0-4-8-8-5-8-3-3-7-38-7" class="st6" d="M17.5,7.5l-3.8,6.2h5.5c0.5-1.2,0.7-2.4,0.7-3.8
		C20,8.6,18.9,7.5,17.5,7.5z"/>
	<path id="path3773-0-4-8-8-7-9-5-3-2-3" class="st3" d="M40.7,76.2C40.3,77.4,40,78.7,40,80c0,1.4,1.1,2.5,2.5,2.5l3.8-6.2H40.7z"
		/>
	<path id="path3773-0-4-8-8-5-6-5-08-5-3-3" class="st4" d="M46.2,76.2l-3.8,6.2c4.2,0,7.8-2.6,9.3-6.2H46.2z"/>
	<path id="path3773-0-4-8-8-1-4-39-7-2-0" class="st5" d="M50,70c-4.2,0-7.8,2.6-9.3,6.2h5.5L50,70z"/>
	<path id="path3773-0-4-8-8-5-8-3-3-6-1-7" class="st6" d="M50,70l-3.8,6.2h5.5c0.5-1.2,0.7-2.4,0.7-3.8C52.5,71.1,51.4,70,50,70z"
		/>
	<path id="path3773-0-4-8-8-7-9-0-03-8-0-6" class="st7" d="M45,20C28.2,20,13.9,30.3,7.9,45C6.1,49.6,5,54.7,5,60
		c0,5.5,4.5,10,10,10c16.8,0,31.1-10.3,37.1-25c1.9-4.6,2.9-9.7,2.9-15C55,24.5,50.5,20,45,20z"/>
	<path id="path3773-0-4-8-8-7-9-0-03-8-9-4-6" class="st7" d="M17.5,7.5c-4.2,0-7.8,2.6-9.3,6.2c-0.5,1.2-0.7,2.4-0.7,3.8
		c0,1.4,1.1,2.5,2.5,2.5c4.2,0,7.8-2.6,9.3-6.2c0.5-1.2,0.7-2.4,0.7-3.8C20,8.6,18.9,7.5,17.5,7.5z"/>
	<path id="path3773-0-4-8-8-7-9-0-03-8-9-5-07-0" class="st7" d="M50,70c-4.2,0-7.8,2.6-9.3,6.2C40.3,77.4,40,78.7,40,80
		c0,1.4,1.1,2.5,2.5,2.5c4.2,0,7.8-2.6,9.3-6.2c0.5-1.2,0.7-2.4,0.7-3.8C52.5,71.1,51.4,70,50,70z"/>
</g>
</svg>
