<?xml version="1.0" encoding="utf-8"?>
<!-- Generator: Adobe Illustrator 19.0.0, SVG Export Plug-In . SVG Version: 6.00 Build 0)  -->
<svg version="1.1" id="Layer_1" xmlns="http://www.w3.org/2000/svg" xmlns:xlink="http://www.w3.org/1999/xlink" x="0px" y="0px"
	 viewBox="-439 51 200 300" style="enable-background:new -439 51 200 300;" xml:space="preserve">
<style type="text/css">
	.st0{fill:#FFFFFF;stroke:#010101;stroke-width:0.5;}
	.st1{fill:#010101;}
	.st2{fill:#FFFFFF;}
	.st3{fill:#FFFFFF;stroke:#010101;stroke-width:0.5099;}
	.st4{fill:#F15858;}
	.st5{fill:#5861AC;}
	.st6{fill:#FBAA19;}
	.st7{fill:#55AA55;}
</style>
<g id="g6694" transform="matrix(4,0,0,4,-1260,-2077.0865)">
	<path id="rect2987-8-5-81-2-1" class="st0" d="M214,532.9h32.5c4.5,0,8.1,3.6,8.1,8.1v56.9c0,4.5-3.6,8.1-8.1,8.1H214
		c-4.5,0-8.1-3.6-8.1-8.1V541C205.9,536.5,209.4,532.9,214,532.9z"/>
	<path id="rect3757-26-33-5-9-9" class="st1" d="M214,536.8h32.5c2.3,0,3.9,1.9,3.9,3.9v56.9c0,2.3-1.9,3.9-3.9,3.9H214
		c-2.3,0-3.9-1.9-3.9-3.9v-56.9C209.8,538.8,211.7,536.8,214,536.8z"/>
	<path id="path3773-0-4-8-4-60-3-86-5-6" class="st2" d="M242.3,549.2c-17.9,0-32.5,14.6-32.5,32.5c0,4.5,3.6,8.1,8.1,8.1
		c17.9,0,32.5-14.6,32.5-32.5C250.7,552.7,246.8,549.2,242.3,549.2z"/>
	<path id="rect3980-7-6-2-9-5-60-5-3-1-5" class="st2" d="M222.1,538.8l-3.9,8.1v1.9h4.9v1.9h1.9v-1.9h1.3v-1.9H225V543h-1.9v3.9
		h-2.9l3.9-8.1H222.1z"/>
	<path id="rect5649-4" class="st2" d="M212.7,543v1.9h-1.9v1.9h1.9v1.9h1.9v-1.9h1.9v-1.9h-1.9V543H212.7z"/>
	<path id="rect3980-7-6-2-9-5-60-5-3-1-8-9" class="st2" d="M238.4,599.8l3.9-8.1v-1.9h-4.9v-1.9h-1.9v1.9h-1.3v1.9h1.3v3.9h1.9
		v-3.9h2.9l-3.9,8.1H238.4z"/>
	<path id="rect5649-1-1" class="st2" d="M247.8,595.6v-1.9h1.9v-1.9h-1.9v-1.9h-1.9v1.9h-1.9v1.9h1.9v1.9H247.8z"/>
	<g id="g6111-38-2" transform="translate(119.99999,429.99998)">
		<path id="rect6095-2-9" class="st3" d="M102.8,129.2h8.1c1,0,1.9,1,1.6,1.9l-4.2,14.6c-0.3,1-1.3,1.9-2.6,1.9h-8.1
			c-1,0-1.9-1-1.6-1.9l4.2-14.6C100.5,129.9,101.5,129.2,102.8,129.2z"/>
		<path id="rect6097-5-7" class="st4" d="M104.1,131.2h3.9c1,0,1.9,1,1.6,1.9l-2.9,10.4c-0.3,1-1.3,1.9-2.6,1.9h-3.9
			c-1,0-1.9-1-1.6-1.9l2.9-10.4C101.8,132.2,103.1,131.2,104.1,131.2z"/>
	</g>
	<g id="g6111-62-2-1" transform="translate(129.99998,422.49998)">
		<path id="rect6095-14-0-3" class="st3" d="M100.9,130.6h8.1c1,0,1.9,1,1.6,1.9l-4.2,14.6c-0.3,1-1.3,1.9-2.6,1.9h-8.1
			c-1,0-1.9-1-1.6-1.9l4.2-14.6C98.6,131.5,99.6,130.6,100.9,130.6z"/>
		<path id="rect6097-6-3-2" class="st5" d="M102.2,132.5h3.9c1,0,1.9,1,1.6,1.9l-2.9,10.4c-0.3,1-1.3,1.9-2.6,1.9h-3.9
			c-1,0-1.9-1-1.6-1.9l2.9-10.4C99.9,133.5,101.2,132.5,102.2,132.5z"/>
	</g>
	<g id="g6111-3-5" transform="translate(127.49999,437.49998)">
		<path id="rect6095-0-3" class="st3" d="M101.4,127.9h8.1c1,0,1.9,1,1.6,1.9l-4.2,14.6c-0.3,1-1.3,1.9-2.6,1.9h-8.1
			c-1,0-1.9-1-1.6-1.9l4.2-14.6C99.2,128.6,100.1,127.9,101.4,127.9z"/>
		<path id="rect6097-7-4" class="st6" d="M102.7,129.9h3.9c1,0,1.9,1,1.6,1.9l-2.9,10.4c-0.3,1-1.3,1.9-2.6,1.9h-3.9
			c-1,0-1.9-1-1.6-1.9l2.9-10.4C100.5,130.5,101.8,129.9,102.7,129.9z"/>
	</g>
	<g id="g6111-62-7-3" transform="translate(137.49998,429.99999)">
		<path id="rect6095-14-8-2" class="st3" d="M99.6,129.2h8.1c1,0,1.9,1,1.6,1.9l-4.2,14.6c-0.3,1-1.3,1.9-2.6,1.9h-8.1
			c-1,0-1.9-1-1.6-1.9l4.2-14.6C97.3,129.9,98.3,129.2,99.6,129.2z"/>
		<path id="rect6097-6-7-1" class="st7" d="M100.9,131.2h3.9c1,0,1.9,1,1.6,1.9l-2.9,10.4c-0.3,1-1.3,1.9-2.6,1.9H97
			c-1,0-1.9-1-1.6-1.9l2.9-10.4C98.6,132.2,99.9,131.2,100.9,131.2z"/>
	</g>
</g>
</svg>
