<?xml version="1.0" encoding="utf-8"?>
<!-- Generator: Adobe Illustrator 19.0.0, SVG Export Plug-In . SVG Version: 6.00 Build 0)  -->
<svg version="1.1" id="Layer_1" xmlns="http://www.w3.org/2000/svg" xmlns:xlink="http://www.w3.org/1999/xlink" x="0px" y="0px"
	 viewBox="0 0 60 90" style="enable-background:new 0 0 60 90;" xml:space="preserve">
<style type="text/css">
	.st0{fill:#FFFFFF;stroke:#010101;stroke-width:0.5;}
	.st1{fill:#010101;}
	.st2{fill:#FFFFFF;}
	.st3{fill:#FFFFFF;stroke:#010101;stroke-width:0.5099;}
	.st4{fill:#F15858;}
	.st5{fill:#5861AC;}
	.st6{fill:#FBAA19;}
	.st7{fill:#55AA55;}
</style>
<g id="g6694" transform="matrix(4,0,0,4,-1260,-2077.0865)">
	<path id="rect2987-8-5-81-2-1" class="st0" d="M317.5,519.3h10c1.4,0,2.5,1.1,2.5,2.5v17.5c0,1.4-1.1,2.5-2.5,2.5h-10
		c-1.4,0-2.5-1.1-2.5-2.5v-17.5C315,520.4,316.1,519.3,317.5,519.3z"/>
	<path id="rect3757-26-33-5-9-9" class="st1" d="M317.5,520.5h10c0.7,0,1.2,0.6,1.2,1.2v17.5c0,0.7-0.6,1.2-1.2,1.2h-10
		c-0.7,0-1.2-0.6-1.2-1.2v-17.5C316.2,521.1,316.8,520.5,317.5,520.5z"/>
	<path id="path3773-0-4-8-4-60-3-86-5-6" class="st2" d="M326.2,524.3c-5.5,0-10,4.5-10,10c0,1.4,1.1,2.5,2.5,2.5
		c5.5,0,10-4.5,10-10C328.8,525.4,327.6,524.3,326.2,524.3z"/>
	<path id="rect3980-7-6-2-9-5-60-5-3-1-5" class="st2" d="M320,521.1l-1.2,2.5v0.6h1.5v0.6h0.6v-0.6h0.4v-0.6h-0.4v-1.2h-0.6v1.2
		h-0.9l1.2-2.5H320z"/>
	<path id="rect5649-4" class="st2" d="M317.1,522.4v0.6h-0.6v0.6h0.6v0.6h0.6v-0.6h0.6V523h-0.6v-0.6H317.1z"/>
	<path id="rect3980-7-6-2-9-5-60-5-3-1-8-9" class="st2" d="M325,539.9l1.2-2.5v-0.6h-1.5v-0.6h-0.6v0.6h-0.4v0.6h0.4v1.2h0.6v-1.2
		h0.9l-1.2,2.5H325z"/>
	<path id="rect5649-1-1" class="st2" d="M327.9,538.6V538h0.6v-0.6h-0.6v-0.6h-0.6v0.6h-0.6v0.6h0.6v0.6H327.9z"/>
	<g id="g6111-38-2" transform="translate(119.99999,429.99998)">
		<path id="rect6095-2-9" class="st3" d="M200.2,97.4h2.5c0.3,0,0.6,0.3,0.5,0.6l-1.3,4.5c-0.1,0.3-0.4,0.6-0.8,0.6h-2.5
			c-0.3,0-0.6-0.3-0.5-0.6l1.3-4.5C199.5,97.6,199.8,97.4,200.2,97.4z"/>
		<path id="rect6097-5-7" class="st4" d="M200.6,98h1.2c0.3,0,0.6,0.3,0.5,0.6l-0.9,3.2c-0.1,0.3-0.4,0.6-0.8,0.6h-1.2
			c-0.3,0-0.6-0.3-0.5-0.6l0.9-3.2C199.9,98.3,200.3,98,200.6,98z"/>
	</g>
	<g id="g6111-62-2-1" transform="translate(129.99998,422.49998)">
		<path id="rect6095-14-0-3" class="st3" d="M192.7,103h2.5c0.3,0,0.6,0.3,0.5,0.6l-1.3,4.5c-0.1,0.3-0.4,0.6-0.8,0.6h-2.5
			c-0.3,0-0.6-0.3-0.5-0.6l1.3-4.5C192,103.3,192.3,103,192.7,103z"/>
		<path id="rect6097-6-3-2" class="st5" d="M193.1,103.6h1.2c0.3,0,0.6,0.3,0.5,0.6l-0.9,3.2c-0.1,0.3-0.4,0.6-0.8,0.6h-1.2
			c-0.3,0-0.6-0.3-0.5-0.6l0.9-3.2C192.4,103.9,192.8,103.6,193.1,103.6z"/>
	</g>
	<g id="g6111-3-5" transform="translate(127.49999,437.49998)">
		<path id="rect6095-0-3" class="st3" d="M194.6,91.8h2.5c0.3,0,0.6,0.3,0.5,0.6l-1.3,4.5c-0.1,0.3-0.4,0.6-0.8,0.6h-2.5
			c-0.3,0-0.6-0.3-0.5-0.6l1.3-4.5C193.9,92,194.2,91.8,194.6,91.8z"/>
		<path id="rect6097-7-4" class="st6" d="M195,92.4h1.2c0.3,0,0.6,0.3,0.5,0.6l-0.9,3.2c-0.1,0.3-0.4,0.6-0.8,0.6h-1.2
			c-0.3,0-0.6-0.3-0.5-0.6l0.9-3.2C194.3,92.6,194.7,92.4,195,92.4z"/>
	</g>
	<g id="g6111-62-7-3" transform="translate(137.49998,429.99999)">
		<path id="rect6095-14-8-2" class="st3" d="M187.1,97.4h2.5c0.3,0,0.6,0.3,0.5,0.6l-1.3,4.5c-0.1,0.3-0.4,0.6-0.8,0.6h-2.5
			c-0.3,0-0.6-0.3-0.5-0.6l1.3-4.5C186.4,97.6,186.7,97.4,187.1,97.4z"/>
		<path id="rect6097-6-7-1" class="st7" d="M187.5,98h1.2c0.3,0,0.6,0.3,0.5,0.6l-0.9,3.2c-0.1,0.3-0.4,0.6-0.8,0.6h-1.2
			c-0.3,0-0.6-0.3-0.5-0.6l0.9-3.2C186.8,98.3,187.2,98,187.5,98z"/>
	</g>
</g>
</svg>
