<?xml version="1.0" encoding="utf-8"?>
<!-- Generator: Adobe Illustrator 19.0.0, SVG Export Plug-In . SVG Version: 6.00 Build 0)  -->
<svg version="1.1" id="Layer_1" xmlns="http://www.w3.org/2000/svg" xmlns:xlink="http://www.w3.org/1999/xlink" x="0px" y="0px"
	 viewBox="-439 51 200 300" style="enable-background:new -439 51 200 300;" xml:space="preserve">
<style type="text/css">
	.st0{fill:#FFFFFF;stroke:#010101;stroke-width:0.5;}
	.st1{fill:#5861AC;}
	.st2{fill:#FFFFFF;}
	.st3{fill:#FFFFFF;stroke:#010101;stroke-width:0.5099;}
	.st4{fill:#F15858;}
	.st5{fill:#FBAA19;}
	.st6{fill:#55AA55;}
</style>
<g id="g6694" transform="matrix(4,0,0,4,-1260,-2077.0865)">
	<path id="rect2987-8-5-81-2-1" class="st0" d="M214,532.9h32.5c4.5,0,8.1,3.6,8.1,8.1v56.9c0,4.5-3.6,8.1-8.1,8.1H214
		c-4.5,0-8.1-3.6-8.1-8.1V541C206.2,536.5,209.8,532.9,214,532.9z"/>
	<path id="rect3757-26-33-5-9-9" class="st1" d="M214,536.8h32.5c2.3,0,3.9,1.9,3.9,3.9v56.9c0,2.3-1.9,3.9-3.9,3.9H214
		c-2.3,0-3.9-1.9-3.9-3.9v-56.9C210.1,538.7,211.7,536.8,214,536.8z"/>
	<path id="path3773-0-4-8-4-60-3-86-5-6" class="st2" d="M242.6,549.1c-17.9,0-32.5,14.6-32.5,32.5c0,4.5,3.6,8.1,8.1,8.1
		c17.9,0,32.5-14.6,32.5-32.5C250.7,552.7,247.1,549.1,242.6,549.1z"/>
	<path id="rect3980-7-6-2-9-5-60-5-3-1-5" class="st2" d="M222.4,538.7l-3.9,8.1v1.9h4.9v1.9h1.9v-1.9h1.3v-1.9h-1.3V543h-2.3v3.9
		h-2.9l3.9-8.1H222.4z"/>
	<path id="rect5649-4" class="st2" d="M213,543v1.9h-1.9v1.9h1.9v1.9h1.9v-1.9h1.9v-1.9H215V543H213z"/>
	<path id="rect3980-7-6-2-9-5-60-5-3-1-8-9" class="st2" d="M238.7,599.8l3.9-8.1v-1.9h-4.9v-1.9h-1.9v1.9h-1.3v1.9h1.3v3.9h1.9
		v-3.9h2.9l-3.9,8.1H238.7z"/>
	<path id="rect5649-1-1" class="st2" d="M247.8,595.6v-1.9h1.9v-1.9h-1.9v-1.9h-1.9v1.9h-1.9v1.9h1.9v1.9H247.8z"/>
	<g id="g6111-38-2" transform="translate(119.99999,429.99998)">
		<path id="rect6095-2-9" class="st3" d="M102.8,129.2h8.1c1,0,1.9,1,1.6,1.9l-4.2,14.6c-0.3,1-1.3,1.9-2.6,1.9h-8.1
			c-1,0-1.9-1-1.6-1.9l4.2-14.6C100.5,129.9,101.8,129.2,102.8,129.2z"/>
		<path id="rect6097-5-7" class="st4" d="M104.4,131.2h3.9c1,0,1.9,1,1.6,1.9l-2.9,10.4c-0.3,1-1.3,1.9-2.6,1.9h-3.9
			c-1,0-1.9-1-1.6-1.9l2.9-10.4C101.8,132.1,103.4,131.2,104.4,131.2z"/>
	</g>
	<g id="g6111-62-2-1" transform="translate(129.99998,422.49998)">
		<path id="rect6095-14-0-3" class="st3" d="M100.9,130.5h8.1c1,0,1.9,1,1.6,1.9l-4.2,14.6c-0.3,1-1.3,1.9-2.6,1.9h-8.1
			c-1,0-1.9-1-1.6-1.9l4.2-14.6C98.9,131.5,99.9,130.5,100.9,130.5z"/>
		<path id="rect6097-6-3-2" class="st1" d="M102.5,132.5h3.9c1,0,1.9,1,1.6,1.9l-2.9,10.4c-0.3,1-1.3,1.9-2.6,1.9h-3.9
			c-1,0-1.9-1-1.6-1.9l2.9-10.4C99.9,133.5,101.5,132.5,102.5,132.5z"/>
	</g>
	<g id="g6111-3-5" transform="translate(127.49999,437.49998)">
		<path id="rect6095-0-3" class="st3" d="M101.8,127.9h8.1c1,0,1.9,1,1.6,1.9l-4.2,14.6c-0.3,1-1.3,1.9-2.6,1.9h-8.1
			c-1,0-1.9-1-1.6-1.9l4.2-14.6C99.2,128.5,100.1,127.9,101.8,127.9z"/>
		<path id="rect6097-7-4" class="st5" d="M103.1,129.8h3.9c1,0,1.9,1,1.6,1.9l-2.9,10.4c-0.3,1-1.3,1.9-2.6,1.9h-3.9
			c-1,0-1.9-1-1.6-1.9l2.9-10.4C100.8,130.5,101.8,129.8,103.1,129.8z"/>
	</g>
	<g id="g6111-62-7-3" transform="translate(137.49998,429.99999)">
		<path id="rect6095-14-8-2" class="st3" d="M99.9,129.2h8.1c1,0,1.9,1,1.6,1.9l-4.2,14.6c-0.3,1-1.3,1.9-2.6,1.9h-8.1
			c-1,0-1.9-1-1.6-1.9l4.2-14.6C97.3,129.9,98.3,129.2,99.9,129.2z"/>
		<path id="rect6097-6-7-1" class="st6" d="M100.9,131.2h3.9c1,0,1.9,1,1.6,1.9l-2.9,10.4c-0.3,1-1.3,1.9-2.6,1.9H97
			c-1,0-1.9-1-1.6-1.9l2.9-10.4C98.9,132.1,99.9,131.2,100.9,131.2z"/>
	</g>
</g>
</svg>
