<?xml version="1.0" encoding="utf-8"?>
<!-- Generator: Adobe Illustrator 19.0.0, SVG Export Plug-In . SVG Version: 6.00 Build 0)  -->
<svg version="1.1" id="Layer_1" xmlns="http://www.w3.org/2000/svg" xmlns:xlink="http://www.w3.org/1999/xlink" x="0px" y="0px"
	 viewBox="-439 51 200 300" style="enable-background:new -439 51 200 300;" xml:space="preserve">
<style type="text/css">
	.st0{fill:#FFFFFF;stroke:#010101;}
	.st1{fill:#F15858;}
	.st2{fill:#FFFFFF;}
	.st3{fill:#FBAA19;}
	.st4{fill:#11AA4B;}
	.st5{fill:#5861AC;}
	.st6{fill:none;stroke:#FFFFFF;stroke-width:4;}
</style>
<g id="g9888-0-5" transform="translate(0,-1.3652344e-5)">
	<path id="rect2987-8-5-81-2-4-9" class="st0" d="M-404,54.5h129.9c17.9,0,32.5,14.6,32.5,32.5v227.4c0,17.9-14.6,32.5-32.5,32.5
		H-404c-17.9,0-32.5-14.6-32.5-32.5V87C-436.5,69.1-421.9,54.5-404,54.5z"/>
	<path id="rect3757-26-33-5-9-0-0" class="st1" d="M-404,70.7h129.9c9.1,0,16.2,7.1,16.2,16.2v227.4c0,9.1-7.1,16.2-16.2,16.2H-404
		c-9.1,0-16.2-7.1-16.2-16.2V87C-420.3,77.9-413.1,70.7-404,70.7z"/>
	<path id="path3773-0-4-8-4-60-3-86-5-7-5" class="st2" d="M-290.3,119.5c-71.8,0-129.9,58.2-129.9,129.9
		c0,17.9,14.6,32.5,32.5,32.5c71.8,0,129.9-58.2,129.9-129.9C-257.8,134.1-272.4,119.5-290.3,119.5z"/>
	<path id="path3773-0-4-8-8-7-9-0-9-1" class="st3" d="M-410.8,200.7c-5.8,14.9-9.4,31.5-9.4,48.7c0,17.9,14.6,32.5,32.5,32.5
		l48.7-81.2H-410.8z"/>
	<path id="path3773-0-4-8-8-5-6-5-0-08-2" class="st4" d="M-339,200.7l-48.7,81.2c54.6,0,101-33.5,120.5-81.2H-339z"/>
	<path id="path3773-0-4-8-8-1-4-3-1-0" class="st1" d="M-290.3,119.5c-54.6,0-101,33.5-120.5,81.2h71.8L-290.3,119.5z"/>
	<path id="path3773-0-4-8-8-5-8-3-9-4-9" class="st5" d="M-290.3,119.5l-48.7,81.2h71.8c6.2-14.9,9.4-31.5,9.4-48.7
		C-257.8,134.1-272.4,119.5-290.3,119.5z"/>
	<path id="path3773-0-4-8-8-7-9-5-7-0-8" class="st3" d="M-409.9,99c-1.6,3.9-2.3,7.8-2.3,12.3s3.6,8.1,8.1,8.1l12.3-20.1h-18.2
		L-409.9,99L-409.9,99z"/>
	<path id="path3773-0-4-8-8-5-6-5-08-9-79-9" class="st4" d="M-391.7,99l-12.3,20.5c13.6,0,25.3-8.4,30.2-20.1h-17.9V99z"/>
	<path id="path3773-0-4-8-8-1-4-39-9-5-1" class="st1" d="M-379.6,78.9c-13.6,0-25.3,8.4-30.2,20.1h17.9L-379.6,78.9z"/>
	<path id="path3773-0-4-8-8-5-8-3-3-7-38-7" class="st5" d="M-379.6,78.9L-392,99h17.9c1.6-3.9,2.3-7.8,2.3-12.3
		C-371.5,82.4-375.1,78.9-379.6,78.9z"/>
	<path id="path3773-0-4-8-8-7-9-5-3-2-3" class="st3" d="M-304.3,302.1c-1.3,3.9-2.3,8.1-2.3,12.3c0,4.5,3.6,8.1,8.1,8.1l12.3-20.1
		h-18.2L-304.3,302.1L-304.3,302.1z"/>
	<path id="path3773-0-4-8-8-5-6-5-08-5-3-3" class="st4" d="M-286.4,302.1l-12.3,20.1c13.6,0,25.3-8.4,30.2-20.1H-286.4z"/>
	<path id="path3773-0-4-8-8-1-4-39-7-2-0" class="st1" d="M-274.1,281.9c-13.6,0-25.3,8.4-30.2,20.1h17.9L-274.1,281.9z"/>
	<path id="path3773-0-4-8-8-5-8-3-3-6-1-7" class="st5" d="M-274.1,281.9l-12.3,20.1h17.9c1.6-3.9,2.3-7.8,2.3-12.3
		C-265.9,285.5-269.5,281.9-274.1,281.9z"/>
	<path id="path3773-0-4-8-8-7-9-0-03-8-0-6" class="st6" d="M-290.3,119.5c-54.6,0-101,33.5-120.5,81.2c-5.8,14.9-9.4,31.5-9.4,48.7
		c0,17.9,14.6,32.5,32.5,32.5c54.6,0,101-33.5,120.5-81.2c6.2-14.9,9.4-31.5,9.4-48.7C-257.8,134.1-272.4,119.5-290.3,119.5z"/>
	<path id="path3773-0-4-8-8-7-9-0-03-8-9-4-6" class="st6" d="M-379.6,78.9c-13.6,0-25.3,8.4-30.2,20.1c-1.6,3.9-2.3,7.8-2.3,12.3
		s3.6,8.1,8.1,8.1c13.6,0,25.3-8.4,30.2-20.1c1.6-3.9,2.3-7.8,2.3-12.3S-375.1,78.9-379.6,78.9z"/>
	<path id="path3773-0-4-8-8-7-9-0-03-8-9-5-07-0" class="st6" d="M-274.1,281.9c-13.6,0-25.3,8.4-30.2,20.1
		c-1.3,3.9-2.3,8.1-2.3,12.3c0,4.5,3.6,8.1,8.1,8.1c13.6,0,25.3-8.4,30.2-20.1c1.6-3.9,2.3-7.8,2.3-12.3
		C-265.9,285.5-269.5,281.9-274.1,281.9z"/>
</g>
</svg>
