<?xml version="1.0" encoding="utf-8"?>
<!-- Generator: Adobe Illustrator 19.0.0, SVG Export Plug-In . SVG Version: 6.00 Build 0)  -->
<svg version="1.1" id="Layer_1" xmlns="http://www.w3.org/2000/svg" xmlns:xlink="http://www.w3.org/1999/xlink" x="0px" y="0px"
	 viewBox="0 0 60 90" style="enable-background:new 0 0 60 90;" xml:space="preserve">
<style type="text/css">
	.st0{fill:#FFFFFF;stroke:#010101;stroke-width:0.5;}
	.st1{fill:#FFAA00;}
	.st2{fill:#FFFFFF;}
</style>
<g id="g6571" transform="matrix(4,0,0,4,-1260,-2077.0865)">
	<path id="rect2987-8" class="st0" d="M317.5,519.3h10c1.4,0,2.5,1.1,2.5,2.5v17.5c0,1.4-1.1,2.5-2.5,2.5h-10
		c-1.4,0-2.5-1.1-2.5-2.5v-17.5C315,520.4,316.1,519.3,317.5,519.3z"/>
	<path id="rect3757-26" class="st1" d="M317.5,520.5h10c0.7,0,1.3,0.6,1.3,1.3v17.5c0,0.7-0.6,1.3-1.3,1.3h-10
		c-0.7,0-1.3-0.6-1.3-1.3v-17.5C316.2,521.1,316.8,520.5,317.5,520.5z"/>
	<path id="path3773-0-4-8-4-60" class="st2" d="M326.2,524.3c-5.5,0-10,4.5-10,10c0,1.4,1.1,2.5,2.5,2.5c5.5,0,10-4.5,10-10
		C328.7,525.4,327.6,524.3,326.2,524.3z"/>
	<path id="rect3163-52-9-8-1-1-2-7-3-6-5" class="st1" d="M322.2,526.8c-1.4,0-2.5,1.1-2.5,2.5v0.3h1.3v-0.3c0-0.7,0.6-1.3,1.3-1.3
		c0.7,0,1.3,0.6,1.3,1.3c0,0.3-0.2,0.8-0.5,1c-1.3,1-1.3,0.9-3.3,2.2v1.8h2.5h2.5V533v-0.5h-1.3v0.5h-1.3h-1
		c1.6-1.1,1.7-1.1,2.9-2.2c0.4-0.3,0.6-1,0.6-1.6C324.7,527.9,323.6,526.8,322.2,526.8z"/>
	<path id="rect3163-52-9-8-1-1-2-7-3-6-0-9" class="st2" d="M318.1,521.2c-0.7,0-1.3,0.6-1.3,1.3v0.1h0.6v-0.1
		c0-0.3,0.3-0.6,0.6-0.6c0.3,0,0.6,0.3,0.6,0.6c0,0.1-0.1,0.4-0.2,0.5c-0.7,0.5-0.7,0.4-1.6,1.1v0.9h1.3h1.3v-0.6V524h-0.6v0.3h-0.6
		h-0.5c0.8-0.5,0.8-0.5,1.4-1.1c0.2-0.2,0.3-0.5,0.3-0.8C319.4,521.7,318.8,521.2,318.1,521.2z"/>
	<path id="rect3163-52-9-8-1-1-2-7-3-6-0-4" class="st2" d="M326.9,539.9c0.7,0,1.3-0.6,1.3-1.3v-0.1h-0.6v0.1
		c0,0.3-0.3,0.6-0.6,0.6s-0.6-0.3-0.6-0.6c0-0.1,0.1-0.4,0.2-0.5c0.7-0.5,0.7-0.4,1.6-1.1v-0.9h-1.3h-1.3v0.6v0.3h0.6v-0.3h0.6h0.5
		c-0.8,0.5-0.8,0.5-1.4,1.1c-0.2,0.2-0.3,0.5-0.3,0.8C325.6,539.4,326.2,539.9,326.9,539.9z"/>
</g>
</svg>
