<?xml version="1.0" encoding="utf-8"?>
<!-- Generator: Adobe Illustrator 19.0.0, SVG Export Plug-In . SVG Version: 6.00 Build 0)  -->
<svg version="1.1" id="Layer_1" xmlns="http://www.w3.org/2000/svg" xmlns:xlink="http://www.w3.org/1999/xlink" x="0px" y="0px"
	 viewBox="0 0 60 90" style="enable-background:new 0 0 60 90;" xml:space="preserve">
<style type="text/css">
	.st0{fill:#FFFFFF;stroke:#010101;stroke-width:0.5;}
	.st1{fill:#FFAA00;}
	.st2{fill:#FFFFFF;}
</style>
<g id="g6587" transform="matrix(4,0,0,4,-1260,-2077.0865)">
	<path id="rect2987-8-5-0" class="st0" d="M317.5,519.3h10c1.4,0,2.5,1.1,2.5,2.5v17.5c0,1.4-1.1,2.5-2.5,2.5h-10
		c-1.4,0-2.5-1.1-2.5-2.5v-17.5C315,520.4,316.1,519.3,317.5,519.3z"/>
	<path id="rect3757-26-33-8" class="st1" d="M317.5,520.5h10c0.7,0,1.2,0.6,1.2,1.2v17.5c0,0.7-0.6,1.2-1.2,1.2h-10
		c-0.7,0-1.2-0.6-1.2-1.2v-17.5C316.2,521.1,316.8,520.5,317.5,520.5z"/>
	<path id="path3773-0-4-8-4-60-3-8" class="st2" d="M326.2,524.3c-5.5,0-10,4.5-10,10c0,1.4,1.1,2.5,2.5,2.5c5.5,0,10-4.5,10-10
		C328.8,525.4,327.6,524.3,326.2,524.3z"/>
	<path id="rect3980-7-6-2-9-5-60-2" class="st1" d="M322.2,526.8l-2.5,5v1.2h3v1.2h1.2V533h0.8v-1.2H324v-2.5h-1.2v2.5h-1.7l2.4-5
		H322.2z"/>
	<path id="rect3980-7-6-2-9-5-60-5-3" class="st2" d="M318.1,521.1l-1.2,2.5v0.6h1.5v0.6h0.6v-0.6h0.4v-0.6H319v-1.2h-0.6v1.2h-0.9
		l1.2-2.5H318.1z"/>
	<path id="rect3980-7-6-2-9-5-60-5-3-9" class="st2" d="M326.9,539.9l1.2-2.5v-0.6h-1.5v-0.6H326v0.6h-0.4v0.6h0.4v1.2h0.6v-1.2h0.9
		l-1.2,2.5H326.9z"/>
</g>
</svg>
