<?xml version="1.0" encoding="utf-8"?>
<!-- Generator: Adobe Illustrator 19.0.0, SVG Export Plug-In . SVG Version: 6.00 Build 0)  -->
<svg version="1.1" id="Layer_1" xmlns="http://www.w3.org/2000/svg" xmlns:xlink="http://www.w3.org/1999/xlink" x="0px" y="0px"
	 viewBox="0 0 60 90" style="enable-background:new 0 0 60 90;" xml:space="preserve">
<style type="text/css">
	.st0{fill:#FFFFFF;stroke:#010101;stroke-width:0.5;}
	.st1{fill:#FFAA00;}
	.st2{fill:#FFFFFF;}
</style>
<g id="g6603" transform="matrix(4,0,0,4,-1260,-2077.0865)">
	<path id="rect2987-8-5-7" class="st0" d="M317.5,519.3h10c1.4,0,2.5,1.1,2.5,2.5v17.5c0,1.4-1.1,2.5-2.5,2.5h-10
		c-1.4,0-2.5-1.1-2.5-2.5v-17.5C315,520.4,316.1,519.3,317.5,519.3z"/>
	<path id="rect3757-26-33-2" class="st1" d="M317.5,520.5h10c0.7,0,1.2,0.6,1.2,1.2v17.5c0,0.7-0.6,1.2-1.2,1.2h-10
		c-0.7,0-1.2-0.6-1.2-1.2v-17.5C316.2,521.1,316.8,520.5,317.5,520.5z"/>
	<path id="path3773-0-4-8-4-60-3-2" class="st2" d="M326.2,524.3c-5.5,0-10,4.5-10,10c0,1.4,1.1,2.5,2.5,2.5c5.5,0,10-4.5,10-10
		C328.8,525.4,327.6,524.3,326.2,524.3z"/>
	<path id="path3962-5-6-2" class="st1" d="M322.5,526.8c-1.4,0-2.5,1.1-2.5,2.5v2.5c0,1.4,1.1,2.5,2.5,2.5s2.5-1.1,2.5-2.5
		s-1.1-2.5-2.5-2.5c-0.5,0-0.9,0.1-1.2,0.3v-0.3c0-0.7,0.6-1.2,1.2-1.2c0.5,0,0.9,0.3,1.1,0.7l1.1-0.6
		C324.3,527.3,323.5,526.8,322.5,526.8z M322.5,530.5c0.7,0,1.2,0.6,1.2,1.2s-0.6,1.2-1.2,1.2s-1.2-0.6-1.2-1.2
		S321.8,530.5,322.5,530.5z M321.2,534.5v0.5h2.5v-0.5H321.2z"/>
	<path id="path3962-5-6-2-1" class="st2" d="M318.1,521.1c-0.7,0-1.2,0.6-1.2,1.2v1.2c0,0.7,0.6,1.2,1.2,1.2s1.2-0.6,1.2-1.2
		s-0.6-1.2-1.2-1.2c-0.2,0-0.4,0.1-0.6,0.2v-0.2c0-0.3,0.3-0.6,0.6-0.6c0.2,0,0.5,0.1,0.6,0.3l0.6-0.3
		C319,521.4,318.6,521.1,318.1,521.1z M318.1,523c0.3,0,0.6,0.3,0.6,0.6s-0.3,0.6-0.6,0.6s-0.6-0.3-0.6-0.6S317.8,523,318.1,523z"/>
	<path id="path3962-5-6-2-1-8" class="st2" d="M326.9,539.9c0.7,0,1.2-0.6,1.2-1.2v-1.2c0-0.7-0.6-1.2-1.2-1.2s-1.2,0.6-1.2,1.2
		s0.6,1.2,1.2,1.2c0.2,0,0.4-0.1,0.6-0.2v0.2c0,0.3-0.3,0.6-0.6,0.6c-0.2,0-0.5-0.1-0.6-0.3l-0.6,0.3
		C326,539.6,326.4,539.9,326.9,539.9z M326.9,538c-0.3,0-0.6-0.3-0.6-0.6s0.3-0.6,0.6-0.6s0.6,0.3,0.6,0.6S327.2,538,326.9,538z"/>
</g>
</svg>
