<?xml version="1.0" encoding="utf-8"?>
<!-- Generator: Adobe Illustrator 19.0.0, SVG Export Plug-In . SVG Version: 6.00 Build 0)  -->
<svg version="1.1" id="Layer_1" xmlns="http://www.w3.org/2000/svg" xmlns:xlink="http://www.w3.org/1999/xlink" x="0px" y="0px"
	 viewBox="-439 51 200 300" style="enable-background:new -439 51 200 300;" xml:space="preserve">
<style type="text/css">
	.st0{fill:#FFFFFF;stroke:#010101;stroke-width:0.5;}
	.st1{fill:#FFAA00;}
	.st2{fill:#FFFFFF;}
</style>
<g id="g6619" transform="matrix(4,0,0,4,-1260,-2077.0865)">
	<path id="rect2987-8-5-8" class="st0" d="M214,532.9h32.5c4.5,0,8.1,3.6,8.1,8.1v56.9c0,4.5-3.6,8.1-8.1,8.1H214
		c-4.5,0-8.1-3.6-8.1-8.1V541C205.9,536.5,209.4,532.9,214,532.9z"/>
	<path id="rect3757-26-33-9" class="st1" d="M214,536.8h32.5c2.3,0,3.9,1.9,3.9,3.9v56.9c0,2.3-1.9,3.9-3.9,3.9H214
		c-2.3,0-3.9-1.9-3.9-3.9v-56.9C209.8,538.8,211.7,536.8,214,536.8z"/>
	<path id="path3773-0-4-8-4-60-3-0" class="st2" d="M242.3,549.2c-17.9,0-32.5,14.6-32.5,32.5c0,4.5,3.6,8.1,8.1,8.1
		c17.9,0,32.5-14.6,32.5-32.5C250.7,552.7,246.8,549.2,242.3,549.2z"/>
	<path id="rect3163-52-9-8-1-1-2-7-3-6-4-6-1-8-8-5" class="st1" d="M230.2,557.3c-3.2,0-6.2,2.6-6.2,6.2c0,1.3,0.3,2.6,1.3,3.6
		c-1.9,1.6-3.2,3.9-3.2,6.5c0,4.5,3.6,8.1,8.1,8.1s8.1-3.6,8.1-8.1c0-2.6-1.3-4.9-3.2-6.5c0.6-1,1.3-2.3,1.3-3.6
		C236.4,559.9,233.5,557.3,230.2,557.3z M230.2,561.2c1,0,1.9,1,1.9,1.9c0,1-1,1.9-1.9,1.9s-1.9-1-1.9-1.9
		C228.3,562.2,229.3,561.2,230.2,561.2z M229.9,569.3h0.3c2.3,0,3.9,1.9,3.9,3.9c0,1.9-1.9,3.9-3.9,3.9s-3.9-1.9-3.9-3.9
		C226,571.3,227.6,569.6,229.9,569.3z"/>
	<path id="rect3163-52-9-8-1-1-2-7-3-6-4-6-1-8-8-2-1" class="st2" d="M215.9,538.8c-1.6,0-2.9,1.3-2.9,2.9c0,0.6,0.3,1.3,0.6,1.9
		c-1,0.6-1.6,1.9-1.6,3.2c0,2.3,1.9,3.9,3.9,3.9s3.9-1.9,3.9-3.9c0-1.3-0.6-2.6-1.6-3.2c0.3-0.6,0.6-1.3,0.6-1.9
		C219.2,540.4,217.6,538.8,215.9,538.8z M215.9,541c0.6,0,1,0.3,1,1s-0.3,1-1,1s-1-0.3-1-1S215.6,541,215.9,541z M215.9,544.9
		L215.9,544.9c1.3,0,2.3,1,2.3,1.9c0,1-1,1.9-1.9,1.9c-1,0-1.9-1-1.9-1.9C214,545.9,214.6,545.3,215.9,544.9z"/>
	<path id="rect3163-52-9-8-1-1-2-7-3-6-4-6-1-8-8-2-1-1" class="st2" d="M244.5,599.8c-1.6,0-2.9-1.3-2.9-2.9c0-0.6,0.3-1.3,0.6-1.9
		c-1-0.6-1.6-1.9-1.6-3.2c0-2.3,1.9-3.9,3.9-3.9s3.9,1.9,3.9,3.9c0,1.3-0.6,2.6-1.6,3.2c0.3,0.6,0.6,1.3,0.6,1.9
		C247.5,598.5,246.2,599.8,244.5,599.8z M244.5,597.9c0.6,0,1-0.3,1-1s-0.3-1-1-1c-0.6,0-1,0.3-1,1S243.9,597.9,244.5,597.9z
		 M244.2,593.7C244.2,593.7,244.5,593.7,244.2,593.7c1.3,0,2.3-1,2.3-1.9c0-1-1-1.9-1.9-1.9c-1,0-1.9,1-1.9,1.9
		C242.3,592.7,243.2,593.7,244.2,593.7z"/>
</g>
</svg>
