<?xml version="1.0" encoding="utf-8"?>
<!-- Generator: Adobe Illustrator 19.0.0, SVG Export Plug-In . SVG Version: 6.00 Build 0)  -->
<svg version="1.1" id="Layer_1" xmlns="http://www.w3.org/2000/svg" xmlns:xlink="http://www.w3.org/1999/xlink" x="0px" y="0px"
	 viewBox="-439 51 200 300" style="enable-background:new -439 51 200 300;" xml:space="preserve">
<style type="text/css">
	.st0{fill:#FFFFFF;stroke:#010101;stroke-width:0.5;}
	.st1{fill:#FFAA00;}
	.st2{fill:#FFFFFF;}
</style>
<g id="g6643" transform="matrix(4,0,0,4,-1260,-2077.0865)">
	<path id="rect2987-8-5-81-25" class="st0" d="M214,532.9h32.5c4.5,0,8.1,3.6,8.1,8.1v56.9c0,4.5-3.6,8.1-8.1,8.1H214
		c-4.5,0-8.1-3.6-8.1-8.1V541C205.9,536.5,209.4,532.9,214,532.9z"/>
	<path id="rect3757-26-33-5-8" class="st1" d="M214,536.8h32.5c2.3,0,3.9,1.9,3.9,3.9v56.9c0,2.3-1.9,3.9-3.9,3.9H214
		c-2.3,0-3.9-1.9-3.9-3.9v-56.9C209.8,538.8,211.7,536.8,214,536.8z"/>
	<path id="path3773-0-4-8-4-60-3-86-6" class="st2" d="M242.3,549.2c-17.9,0-32.5,14.6-32.5,32.5c0,4.5,3.6,8.1,8.1,8.1
		c17.9,0,32.5-14.6,32.5-32.5C250.7,552.7,246.8,549.2,242.3,549.2z"/>
	<path id="path5973-41" class="st1" d="M230.2,556.3l1.9,1.9l-8.1,8.1c-1.9,1.9-1.9,6.2,0,8.1l3.9-3.9l8.1-8.1l1.9,1.9v-8.1
		L230.2,556.3L230.2,556.3z"/>
	<path id="path5973-4-6" class="st1" d="M230.2,582.6l-1.9-1.9l8.1-8.1c1.9-1.9,1.9-6.2,0-8.1l-3.9,3.9l-8.1,8.1l-1.9-1.9v8.1
		L230.2,582.6L230.2,582.6z"/>
	<path id="path5973-6-5" class="st2" d="M215.9,538.8l1,1l-3.9,3.9c-1,1-1,2.9,0,3.9l1.9-1.9l3.9-3.9l1,1v-3.9H215.9z"/>
	<path id="path5973-4-3-5" class="st2" d="M215.9,552.1l-1-1l3.9-3.9c1-1,1-2.9,0-3.9l-1.9,1.9l-3.9,3.9l-1-1v3.9H215.9z"/>
	<path id="path5973-6-5-2" class="st2" d="M244.5,586.5l1,1l-3.9,3.9c-1,1-1,2.9,0,3.9l1.9-1.9l3.9-3.9l1,1v-3.9H244.5z"/>
	<path id="path5973-4-3-5-8" class="st2" d="M244.5,599.8l-1-1l3.9-3.9c1-1,1-2.9,0-3.9l-1.9,1.9l-3.9,3.9l-1-1v3.9H244.5z"/>
</g>
</svg>
