<?xml version="1.0" encoding="utf-8"?>
<!-- Generator: Adobe Illustrator 19.0.0, SVG Export Plug-In . SVG Version: 6.00 Build 0)  -->
<svg version="1.1" id="Layer_1" xmlns="http://www.w3.org/2000/svg" xmlns:xlink="http://www.w3.org/1999/xlink" x="0px" y="0px"
	 viewBox="-439 51 200 300" style="enable-background:new -439 51 200 300;" xml:space="preserve">
<style type="text/css">
	.st0{fill:#FFFFFF;stroke:#010101;stroke-width:0.5;}
	.st1{fill:#FFAA00;}
	.st2{fill:#FFFFFF;}
</style>
<g id="g6635" transform="matrix(4,0,0,4,-1260,-2077.0865)">
	<path id="rect2987-8-5-81-5" class="st0" d="M214,532.9h32.5c4.5,0,8.1,3.6,8.1,8.1v56.9c0,4.5-3.6,8.1-8.1,8.1H214
		c-4.5,0-8.1-3.6-8.1-8.1V541C205.9,536.5,209.4,532.9,214,532.9z"/>
	<path id="rect3757-26-33-5-3" class="st1" d="M214,536.8h32.5c2.3,0,3.9,1.9,3.9,3.9v56.9c0,2.3-1.9,3.9-3.9,3.9H214
		c-2.3,0-3.9-1.9-3.9-3.9v-56.9C209.8,538.8,211.7,536.8,214,536.8z"/>
	<path id="path3773-0-4-8-4-60-3-86-2" class="st2" d="M242.3,549.2c-17.9,0-32.5,14.6-32.5,32.5c0,4.5,3.6,8.1,8.1,8.1
		c17.9,0,32.5-14.6,32.5-32.5C250.7,552.7,246.8,549.2,242.3,549.2z"/>
	<path id="path5897-6-5" class="st1" d="M230.2,557.3c-3.2,0-6.2,1.3-8.8,3.6c-4.9,4.9-4.9,12.3,0,17.2s12.3,4.9,17.2,0
		s4.9-12.3,0-17.2C236.4,558.3,233.5,557.3,230.2,557.3L230.2,557.3z M230.2,561.2c1.3,0,2.9,0.3,4.2,1l-11,11
		c-1.9-3.2-1.3-7.1,1.3-9.7C226,562.2,228.3,561.2,230.2,561.2z M237.4,565.1c1.9,3.2,1.3,7.1-1.3,9.7s-6.8,2.9-9.7,1.3L237.4,565.1
		z"/>
	<path id="path5897-6-8-2" class="st2" d="M218.2,538.8c-1.6,0-3.2,0.6-4.2,1.6c-2.3,2.3-2.3,6.2,0,8.8c2.3,2.3,6.2,2.3,8.8,0
		c2.6-2.3,2.3-6.2,0-8.8C221.1,539.4,219.5,538.8,218.2,538.8L218.2,538.8z M218.2,541c0.6,0,1.3,0.3,1.9,0.6l-5.5,5.5
		c-1-1.6-0.6-3.6,0.6-4.9C215.9,541.4,216.9,541,218.2,541z M221.5,543c1,1.6,0.6,3.6-0.6,4.9c-1.3,1.3-3.2,1.6-4.9,0.6L221.5,543
		L221.5,543z"/>
	<path id="path5897-6-8-5" class="st2" d="M242.6,587.5c-1.6,0-3.2,0.6-4.2,1.6c-2.3,2.3-2.3,6.2,0,8.8c2.3,2.3,6.2,2.3,8.8,0
		c2.3-2.3,2.3-6.2,0-8.8C245.5,588.2,243.9,587.5,242.6,587.5L242.6,587.5z M242.3,589.8c0.6,0,1.3,0.3,1.9,0.6l-5.5,5.5
		c-1-1.6-0.6-3.6,0.6-4.9C240.3,590.1,241.3,589.8,242.3,589.8z M245.8,591.7c1,1.6,0.6,3.6-0.6,4.9c-1.3,1.3-3.2,1.6-4.9,0.6
		L245.8,591.7L245.8,591.7z"/>
</g>
</svg>
